<?xml version="1.0" encoding="UTF-8" standalone="no"?>
<svg
   xmlns:dc="http://purl.org/dc/elements/1.1/"
   xmlns:cc="http://creativecommons.org/ns#"
   xmlns:rdf="http://www.w3.org/1999/02/22-rdf-syntax-ns#"
   xmlns:svg="http://www.w3.org/2000/svg"
   xmlns="http://www.w3.org/2000/svg"
   xmlns:sodipodi="http://sodipodi.sourceforge.net/DTD/sodipodi-0.dtd"
   xmlns:inkscape="http://www.inkscape.org/namespaces/inkscape"
   viewBox="-500 -500 5000 5000"
   width="25"
   height="25"
   id="svg4893"
   version="1.1"
   inkscape:version="0.91 r13725"
   sodipodi:docname="socicon_new.svg">
  <metadata
     id="metadata5167">
    <rdf:RDF>
      <cc:Work
         rdf:about="">
        <dc:format>image/svg+xml</dc:format>
        <dc:type
           rdf:resource="http://purl.org/dc/dcmitype/StillImage" />
      </cc:Work>
    </rdf:RDF>
  </metadata>
  <defs
     id="defs5165" />
  <sodipodi:namedview
     pagecolor="#ffffff"
     bordercolor="#666666"
     borderopacity="1"
     objecttolerance="10"
     gridtolerance="10"
     guidetolerance="10"
     inkscape:pageopacity="0"
     inkscape:pageshadow="2"
     inkscape:window-width="1591"
     inkscape:window-height="998"
     id="namedview5163"
     showgrid="false"
     inkscape:zoom="9.44"
     inkscape:cx="12.5"
     inkscape:cy="12.5"
     inkscape:window-x="63"
     inkscape:window-y="24"
     inkscape:window-maximized="0"
     inkscape:current-layer="svg4893" />
  <g
     id="g4895"
     transform="matrix(1,0,0,-1,0,3531.3899)">
    <path
       unicode="j"
       d="m -4,1604 4,4 q 0,100 72,174 74,72 174,72 102,0 174,-72 72,-74 72,-171 l 0,-5 0,-5 q 0,-97 -72,-171 -72,-72 -176,-72 -100,0 -174,72 -72,74 -74,174 z m 8,-1742 6,6 0,1288 q 0,20 14,36 16,14 34,14 l 368,0 q 18,0 34,-14 14,-16 14,-38 l 0,-1288 q 0,-20 -16,-36 -16,-16 -36,-16 l -366,0 q -20,0 -36,14 -16,16 -16,34 z m 658,-10 10,10 0,1288 q 0,22 14,36 16,16 36,14 l 356,2 q 18,-2 30,-6 8,-8 14,-28 0,-18 4,-26 l -2,-14 q 2,-10 2,-22 134,128 357,128 l 7,0 8,0 q 246,0 390,-126 140,-126 144,-378 l -4,-868 q 4,-22 -16,-36 -12,-18 -36,-18 l -370,0 q -24,0 -36,14 -20,16 -16,34 l -4,788 0,16 q 0,88 -40,136 -34,48 -140,48 -128,0 -184,-76 -50,-76 -54,-212 l 4,-700 q -4,-22 -14,-36 -20,-16 -38,-16 l -370,0 q -16,0 -36,14 -12,16 -16,34 z"
       id="path4897"
       inkscape:connector-curvature="0" />
  </g>
  <g
     id="g4899"
     transform="matrix(1,0,0,-1,-12966.102,-769.4577)">
    <path
       d="m -6,1914 2,-392 4,4 q 224,-2 436,-60 212,-60 394,-166 178,-108 332,-260 150,-154 258,-334 104,-184 166,-396 54,-216 58,-440 l 388,-2 q 4,280 -74,544 -68,266 -204,490 -128,224 -320,412 -184,190 -412,320 -220,134 -488,206 -260,74 -540,74 z M 0,828 4,832 Q 194,832 370,760 542,688 678,552 812,416 884,240 956,66 956,-128 l 392,0 q 0,182 -50,358 -48,174 -134,324 -88,146 -212,272 -124,124 -272,212 -148,86 -322,136 -174,46 -358,48 L 0,828 Z M 4,146 Q 4,34 84,-46 q 80,-80 192,-80 112,0 192,80 80,80 80,192 0,112 -80,192 -80,80 -192,80 Q 164,418 84,338 4,258 4,146 Z"
       id="path4901"
       inkscape:connector-curvature="0" />
  </g>
  <g
     id="g4903"
     transform="matrix(1,0,0,-1,-13199.153,-3184.7119)">
    <path
       d="m 78,228 q 0,-26 10,-51 10,-25 28,-42 18,-17 42,-28 24,-11 52,-11 l 1850,0 q 28,0 52,11 24,11 42,28 18,17 28,42 10,25 10,51 l 0,1322 q 0,28 -10,52 -10,24 -28,42 -18,18 -42,28 -24,10 -52,10 l -1850,0 q -28,0 -52,-10 -24,-10 -42,-28 -18,-18 -28,-42 -10,-24 -10,-52 L 78,228 Z m 132,94 0,852 506,-344 z m 0,1012 0,216 1850,0 0,-214 -4,4 -922,-636 z m 94,-1106 524,526 308,-210 304,210 526,-526 -1662,0 z m 1246,604 510,350 0,-860 z"
       id="path4905"
       inkscape:connector-curvature="0" />
  </g>
  <g
     id="g4907"
     transform="matrix(1,0,0,-1,-12923.729,1836.4746)">
    <path
       d="m 10,122 2,0 1190,-250 0,2048 L 10,1690 10,122 Z m 330,762 2,4 q 0,162 76,262 76,102 200,100 116,2 190,-96 70,-92 72,-254 -2,-162 -74,-262 -78,-98 -198,-100 -118,0 -192,96 -78,96 -76,250 z m 126,4 2,4 q 2,-102 38,-162 40,-60 100,-60 64,0 102,56 36,60 38,160 -2,106 -36,166 -38,60 -100,58 -66,2 -104,-60 -40,-60 -40,-162 z m 798,584 2,-404 2,4 136,-86 q 10,-4 14,-2 l 606,404 q -4,34 -24,56 -28,28 -46,24 z m 2,-1092 2,4 650,-2 q 44,0 78,28 26,28 30,84 l -4,736 q -584,-392 -590,-394 -16,-14 -40,0 l -122,88 z"
       id="path4909"
       inkscape:connector-curvature="0" />
  </g>
  <g
     id="g4911"
     transform="matrix(1,0,0,-1,-12902.543,5332.2374)">
    <path
       unicode="2"
       d="m -2,1564 2,2 q 0,-106 74,-182 74,-74 180,-74 104,0 180,74 72,74 74,180 -2,104 -74,180 -76,72 -180,74 -108,-2 -182,-74 -76,-76 -74,-180 z m 760,-8 2,2 q 0,-104 74,-182 74,-72 180,-74 106,2 180,74 74,76 74,180 0,106 -76,180 -74,74 -180,74 -106,0 -180,-74 -74,-74 -74,-180 z m 2,-668 0,2 q 2,-104 74,-180 76,-72 180,-74 108,0 180,74 76,74 76,180 0,106 -76,180 -74,74 -180,74 -106,0 -180,-76 -74,-74 -74,-180 z m 762,658 2,2 q 0,-104 74,-182 74,-72 180,-74 104,2 180,74 72,76 74,180 -2,106 -74,180 -76,74 -180,74 -108,0 -182,-74 -76,-74 -74,-180 z m 2,-668 2,2 q 2,-104 74,-180 76,-72 180,-74 106,0 180,74 74,74 74,180 0,106 -74,180 -74,74 -180,74 -106,0 -182,-76 -74,-74 -74,-180 z m 4,-666 2,2 q 0,-106 74,-182 74,-74 180,-74 104,0 180,74 72,74 74,180 -2,104 -74,180 -76,72 -180,74 -108,-2 -182,-74 -76,-76 -74,-180 z"
       id="path4913"
       inkscape:connector-curvature="0" />
  </g>
  <g
     id="g4915"
     transform="matrix(1,0,0,-1,-12817.797,7408.5086)">
    <path
       unicode="3"
       d="M -14,792 0,808 Q 0,668 70,548 138,428 258,358 q 116,-68 258,-68 112,0 218,48 98,48 176,134 l 110,-166 108,170 q 66,-88 176,-140 98,-48 222,-50 134,0 258,68 112,70 188,190 62,118 70,258 -8,182 -116,326 32,116 90,168 l -348,-2 -16,2 q -2,14 -26,32 -8,16 -66,48 -42,28 -116,54 -58,18 -184,40 -108,12 -258,16 -106,-4 -210,-12 -90,-14 -162,-28 -58,-20 -118,-38 -44,-24 -82,-42 -20,-24 -48,-38 -12,-20 -26,-28 l 0,-14 -360,2 Q 52,1238 90,1102 -10,962 -14,792 Z m 100,-4 6,0 q -4,174 122,294 116,124 292,122 166,2 292,-122 Q 914,962 918,788 914,618 796,494 670,376 502,374 326,374 208,494 82,616 86,788 Z m 158,-2 4,2 q 4,-102 72,-174 76,-74 174,-74 106,0 174,72 78,72 72,176 6,100 -72,176 -68,68 -176,72 -96,-4 -176,-74 -66,-76 -72,-176 z m 74,-6 6,2 q -4,76 48,122 48,54 120,52 70,0 120,-52 52,-50 50,-122 2,-70 -50,-122 -50,-50 -122,-50 -70,0 -122,50 -48,50 -50,120 z m 86,-4 2,4 q 0,-34 24,-58 24,-26 58,-26 36,0 58,24 26,26 26,58 0,36 -26,60 -24,24 -58,24 -34,0 -60,-26 -24,-24 -24,-60 z m 90,488 q 4,6 16,16 10,10 54,36 40,26 92,46 50,18 138,36 86,14 186,16 l 32,-2 q 102,2 184,-16 90,-12 140,-38 54,-20 92,-44 38,-20 54,-38 l 16,-12 q -8,-2 -22,2 -14,0 -56,-2 -40,-4 -82,-12 -40,-12 -92,-38 -54,-30 -98,-70 -44,-44 -86,-116 -42,-76 -68,-168 -26,92 -68,168 -42,70 -88,114 -46,38 -96,70 -50,24 -94,36 -46,6 -82,12 -36,2 -56,2 z m 580,-496 4,0 q 0,174 120,294 122,124 292,122 172,2 292,-122 122,-120 122,-294 0,-170 -122,-294 -120,-118 -292,-120 -172,0 -294,120 -122,122 -122,294 z m 162,-2 4,2 q 0,-102 72,-174 74,-74 174,-74 106,0 174,72 76,72 74,176 0,100 -74,176 -72,68 -174,72 -104,-4 -176,-74 -74,-76 -74,-176 z m 72,-6 4,2 q 0,74 50,122 52,52 120,52 74,0 120,-52 54,-50 52,-122 0,-70 -52,-122 -50,-50 -120,-50 -72,0 -122,50 -52,52 -52,120 z m 86,-2 2,4 q 0,-36 24,-58 24,-28 58,-26 36,-2 58,24 26,24 26,58 0,34 -26,60 -24,22 -58,24 -34,-2 -60,-26 -24,-26 -24,-60 z"
       id="path4917"
       inkscape:connector-curvature="0" />
  </g>
  <g
     id="g4919"
     transform="matrix(1,0,0,-1,9894.068,10247.492)">
    <path
       unicode="4"
       d="m 30,-92 344,0 198,944 q 62,278 276,552 216,278 420,278 170,0 170,-218 0,-116 -56,-344 l -84,-382 q -70,-328 -70,-500 0,-170 90,-268 92,-100 244,-100 210,0 448,208 l -64,108 q -132,-84 -238,-84 -130,0 -130,174 0,168 48,386 l 94,436 q 68,290 66,404 2,408 -394,408 -372,0 -672,-498 l -36,0 96,464 -680,0 -36,-154 32,0 q 254,0 256,-176 -2,-64 -22,-166 z"
       id="path4921"
       inkscape:connector-curvature="0" />
  </g>
  <g
     id="g4923"
     transform="matrix(1,0,0,-1,14661.017,-1934.7119)">
    <path
       unicode="5"
       d="m -14,476 14,16 q 0,-80 58,-140 56,-54 138,-56 70,0 126,46 52,46 66,116 l 284,0 q 16,-134 112,-226 104,-92 236,-92 140,0 236,92 104,92 112,226 l 292,0 q 6,-70 66,-116 48,-46 126,-46 74,0 138,56 50,58 58,136 -8,84 -58,138 -64,60 -138,58 -80,0 -126,-48 -62,-46 -66,-116 l -294,0 q -2,110 -82,194 l 250,244 q 50,-40 128,-36 64,6 122,56 48,58 56,138 -8,82 -58,138 -64,56 -138,56 -88,0 -138,-58 -58,-50 -56,-122 -14,-72 34,-128 L 1232,756 q -74,64 -186,76 l 4,416 q 64,14 116,66 40,56 46,126 -6,82 -58,138 -62,58 -138,58 -86,0 -138,-58 -64,-56 -58,-138 -6,-72 46,-126 40,-54 116,-66 L 976,828 Q 876,818 788,752 L 550,996 q 34,58 34,128 -10,72 -56,122 -62,56 -138,56 -86,0 -138,-58 -62,-56 -58,-138 -4,-82 56,-138 46,-52 122,-58 66,-4 128,36 L 738,702 Q 672,618 656,508 l -282,0 q -18,70 -66,116 -60,46 -126,46 -86,0 -138,-56 -64,-58 -58,-138 z"
       id="path4925"
       inkscape:connector-curvature="0" />
  </g>
  <g
     id="g4927"
     transform="matrix(1,0,0,-1,13495.763,-5070.3052)">
    <path
       unicode="6"
       d="m -14,760 14,6 q 4,-28 22,-50 22,-22 54,-30 32,-6 62,2 30,8 52,32 4,2 8,12 6,8 8,14 8,6 24,8 l 728,-12 q 8,2 10,10 -6,26 0,36 -2,8 0,8 -4,2 -10,2 L 220,788 q -6,0 -12,10 0,30 -32,54 -26,24 -72,24 -30,0 -64,-16 -26,-16 -44,-44 -10,-28 -10,-56 z m 704,268 12,12 q 0,-20 16,-32 26,-28 62,-14 10,6 14,6 -2,0 12,-10 L 976,856 q 8,-6 10,0 12,16 22,26 4,4 2,4 0,4 -2,4 -2,4 -6,4 -2,2 -4,2 l -4,2 -166,118 q -2,2 -8,4 -6,4 -8,4 -2,2 -4,6 -2,6 2,8 l 0,6 q -2,26 -20,38 -18,16 -42,16 -34,0 -50,-32 -10,-18 -8,-38 z m 54,-480 8,6 q -4,-36 28,-58 28,-22 66,-16 24,8 44,30 12,26 12,52 -6,8 4,8 20,16 98,56 l 0,12 q -10,4 -4,2 -18,12 -18,20 -10,6 -8,4 -6,2 -6,-2 l -90,-52 q -2,-6 -14,-2 -32,26 -78,8 -36,-22 -42,-68 z m 240,200 10,2 q -4,-34 20,-68 34,-56 120,-62 l 4,2 18,0 -10,0 q 52,2 86,30 44,24 54,68 18,40 0,80 -10,40 -50,64 -36,28 -92,28 -36,-4 -78,-22 -34,-20 -60,-52 -18,-34 -22,-70 z m 56,370 12,12 q 12,-50 68,-68 4,0 8,-12 l -14,-112 q 4,-8 2,-10 8,-4 8,-2 28,2 36,0 12,-2 6,0 8,0 2,6 4,76 -4,114 6,4 4,10 10,0 12,6 14,-2 10,2 24,6 28,20 34,26 26,66 8,32 -18,62 -12,26 -50,38 -12,4 -38,4 -46,-2 -80,-40 -28,-44 -18,-96 z m 212,-510 8,4 q -10,-4 0,-8 l 28,-20 q 8,-2 4,-4 4,-4 0,-8 l 0,-8 q 0,-8 4,-22 14,-26 36,-26 22,-2 36,12 16,14 16,36 0,22 -16,38 -16,12 -38,10 -20,-8 -36,12 l -2,2 q -2,0 -4,2 -4,4 -8,4 -6,0 -10,-6 -6,-8 -18,-18 z m 6,254 14,2 0,-4 q 0,0 2,-4 l 4,-2 q 0,-2 4,-4 6,-10 14,-18 0,-4 2,-4 l 2,0 4,2 q 0,2 4,2 l 238,156 q 8,0 16,-6 46,-26 80,6 32,18 30,52 4,28 -20,56 -18,20 -54,24 -34,-4 -60,-28 -20,-30 -16,-62 4,-12 -6,-12 -86,-54 -254,-152 0,-6 -4,-4 z m 46,-164 6,8 q -6,-4 6,-8 l 474,10 8,-4 q 6,-10 6,-14 l 4,-12 q 8,-18 24,-30 30,-24 70,-18 34,4 56,30 24,26 22,60 2,34 -22,62 -20,24 -56,32 -4,-2 -18,0 -30,-4 -56,-20 -22,-20 -32,-48 -2,-12 -12,-10 l -474,4 q -4,2 -2,-18 -2,-4 -4,-24 z"
       id="path4929"
       inkscape:connector-curvature="0" />
  </g>
  <g
     id="g4931"
     transform="matrix(1,0,0,-1,-11949.153,9675.4578)">
    <path
       unicode="7"
       d="m 48,1712 30,22 q -6,-20 20,-114 16,-56 44,-134 30,-76 36,-100 8,-18 18,-62 16,-42 18,-60 6,-6 6,-12 10,-4 6,-6 24,-40 40,-118 24,-78 28,-98 4,-6 6,-12 8,-4 6,-6 6,-6 4,-18 6,-12 6,-16 36,-100 68,-206 34,-106 74,-244 40,-136 66,-220 8,-26 24,-82 16,-56 26,-94 12,-36 28,-86 18,-48 32,-80 14,-30 34,-56 18,-26 38,-34 10,-4 24,-6 16,0 34,2 22,2 38,6 20,2 46,12 30,6 48,16 20,2 52,16 34,8 54,16 l 636,198 q 4,2 84,22 80,22 128,40 46,18 54,34 0,2 6,2 4,2 6,2 l 0,4 -4,0 q 2,4 6,4 l 6,2 q 16,20 18,56 l 0,20 2,16 q 0,24 -10,50 -10,34 -14,46 l 4,10 q -2,10 -8,22 -4,12 -6,16 -2,8 -4,28 -2,18 -6,28 l -4,12 0,2 -6,12 q -6,18 -6,14 l -6,14 q -6,18 -8,12 0,-2 -8,12 -10,16 -12,8 -2,-4 -14,6 -10,14 -16,2 l -18,2 0,-2 -20,0 -20,-4 q 0,-4 -24,-8 l -24,-6 q 0,-6 -24,-8 l -26,-8 q -534,-172 -556,-176 -2,-2 -12,-4 -6,-6 -12,-6 -4,-2 -12,-2 -4,0 -12,2 l -240,764 q -18,56 -54,180 -38,128 -56,192 -10,28 -26,82 -18,58 -26,88 -12,32 -26,72 -16,40 -32,64 -18,22 -36,34 -16,6 -44,8 -70,-2 -182,-38 -116,-38 -188,-70 -12,-6 -26,-10 -16,-8 -24,-10 l -16,-8 q -12,-10 -22,-24 -12,-18 -14,-24 z"
       id="path4933"
       inkscape:connector-curvature="0" />
  </g>
  <g
     id="g4935"
     transform="matrix(1,0,0,-1,14067.797,9611.8985)">
    <path
       unicode="8"
       d="m 8,914 12,12 Q 18,902 34,872 174,702 460,584 366,266 480,62 q 70,-128 198,-174 114,-40 208,4 94,46 108,156 0,18 2,40 l -2,384 2,2 q 0,-2 54,-14 l -2,-374 q 0,-126 88,-184 90,-54 198,-24 134,32 206,150 130,178 62,468 -2,40 -22,84 154,58 252,136 112,74 168,152 34,40 4,72 -18,26 -70,0 4,-6 -6,-6 2,-8 -8,-8 0,-6 -14,-4 l 4,788 q -4,88 -50,140 -54,62 -124,58 l -1440,4 q -72,-4 -136,-58 -54,-62 -58,-140 l 4,-798 -4,6 q -6,4 -10,6 l -8,4 Q 54,952 32,944 8,938 8,914 Z m 216,-80 0,14 2,768 q -2,106 32,146 30,40 126,40 l 1266,0 q 90,0 118,-42 32,-42 30,-144 l 2,-764 q -50,-26 -100,-48 -52,-20 -92,-34 -42,-12 -92,-22 -54,-8 -84,-12 -32,-4 -80,-6 l -70,0 -64,0 q -48,2 -52,2 -70,2 -98,-22 -30,-28 -32,-76 -26,14 -68,56 -10,4 -12,10 -34,30 -104,30 -6,-4 -52,-4 -52,-4 -68,-4 l -68,0 q -54,0 -84,4 -32,2 -82,10 -54,6 -92,20 -42,10 -88,32 -52,18 -94,46 z m 266,202 0,6 q 2,-90 70,-158 72,-64 170,-66 102,0 170,64 72,66 70,158 2,92 -70,158 -68,64 -170,64 -98,0 -170,-66 -68,-66 -70,-160 z m 562,-2 6,4 q 0,-92 70,-162 70,-64 170,-66 98,2 170,66 68,68 70,160 -2,94 -72,158 -72,66 -170,66 -102,0 -172,-66 -72,-66 -72,-160 z"
       id="path4937"
       inkscape:connector-curvature="0" />
  </g>
  <g
     id="g4939"
     transform="matrix(1,0,0,-1,15084.746,4463.5933)">
    <path
       unicode="9"
       d="m 2,874 8,8 0,-8 q 2,-6 2,-8 l 4,-4 q 2,-4 6,-6 4,-4 6,-4 2,-2 8,-4 4,-2 6,-2 L 936,428 q 72,-34 142,-2 l 898,420 q 12,4 20,10 16,12 16,22 0,14 -16,24 -4,4 -16,10 l -160,74 q -30,14 -70,14 -36,0 -70,-16 L 1076,702 q -72,-34 -140,-2 L 336,982 q -72,32 -146,0 L 40,910 q -2,0 -10,-4 -8,-2 -10,-4 -4,-2 -8,-6 -6,-4 -8,-10 -2,-4 -2,-12 z m 8,-546 6,10 q 2,-6 2,-10 2,-2 2,-6 4,-4 4,-6 2,-2 6,-4 4,-2 6,-4 2,0 8,-2 4,-2 6,-4 l 894,-416 q 72,-34 142,-2 l 900,420 q 14,6 20,10 14,10 14,22 0,14 -16,22 -4,6 -16,8 l -160,76 q -32,12 -70,14 -34,-2 -70,-18 L 1084,156 q -72,-32 -140,-2 L 344,436 q -72,32 -146,0 L 48,364 q -2,0 -10,-4 -8,-2 -10,-6 -4,0 -8,-6 -6,-2 -8,-8 -2,-4 -2,-12 z m 6,1118 2,4 q 0,-12 12,-20 4,-4 30,-16 L 952,996 q 72,-32 142,0 l 894,418 q 18,8 28,16 22,18 0,38 -10,6 -28,16 l -892,414 q -36,18 -76,18 -36,0 -74,-16 L 56,1484 q -24,-12 -28,-16 -14,-10 -12,-22 z"
       id="path4941"
       inkscape:connector-curvature="0" />
  </g>
  <g
     id="g4943"
     transform="matrix(1,0,0,-1,14978.814,205.1186)">
    <path
       unicode=":"
       d="m 0,80 422,58 Q 554,26 716,-36 q 164,-62 342,-62 202,0 382,78 184,78 316,212 132,132 210,318 78,182 78,386 0,200 -78,386 -78,182 -210,318 -132,130 -316,212 -182,74 -382,78 -202,-4 -384,-78 Q 492,1730 360,1600 228,1462 150,1282 72,1094 72,896 72,676 160,484 Z m 670,320 2,0 0,988 372,-4 q 258,4 402,-134 146,-128 146,-352 0,-222 -148,-358 -148,-140 -406,-138 z m 264,244 2,4 110,-2 q 126,2 200,64 78,64 78,180 l 0,2 q 0,116 -78,180 -76,64 -200,64 l -112,0 0,-492 z"
       id="path4945"
       inkscape:connector-curvature="0" />
  </g>
  <g
     id="g4947"
     transform="matrix(1,0,0,-1,-6377.1188,-5388.1018)">
    <path
       unicode=";"
       d="m -26,1332 30,34 q 14,-54 38,-110 24,-54 66,-130 38,-74 54,-102 96,-174 192,-306 90,-132 206,-236 104,-96 254,-138 144,-40 302,-26 38,4 62,34 14,28 20,66 -6,32 6,78 0,40 22,66 12,12 38,18 12,0 34,-2 6,-8 34,-22 8,-20 28,-28 0,-14 26,-34 8,-28 22,-30 120,-152 244,-160 56,14 120,12 40,-10 122,-4 54,-2 116,24 2,14 20,38 -10,18 -8,44 -24,20 -22,40 -24,14 -30,42 -34,20 -28,34 -52,44 -118,126 -96,72 -110,108 -28,14 -18,42 -16,14 8,46 0,18 18,38 -4,4 32,42 12,24 28,32 6,22 70,88 36,56 76,98 14,30 56,94 18,52 42,112 -18,30 -34,48 -42,12 -62,12 -44,-4 -74,-6 -56,-4 -64,0 -34,-4 -86,4 -74,6 -104,-2 -54,-10 -66,-48 -68,-128 -106,-222 -62,-94 -114,-174 -22,-16 -24,-32 -26,-14 -32,-28 -28,-12 -34,-12 -28,2 -28,22 -34,34 -28,84 -14,50 0,88 -10,36 6,100 0,66 6,118 -8,54 -20,96 -20,18 -28,26 -24,12 -42,16 -34,4 -38,6 -18,0 -46,2 -44,0 -40,0 -42,-2 -76,-2 -48,0 -78,-2 -42,0 -74,-10 -44,-10 -68,-32 -30,-18 -12,-36 6,-16 38,-24 18,-10 48,-30 14,-22 16,-50 20,-174 -6,-340 -24,-66 -74,-36 -46,22 -66,68 -10,8 -8,14 -96,124 -210,378 -28,36 -60,46 -44,6 -96,4 -66,-10 -80,-6 -18,-4 -44,0 -36,0 -54,2 -30,-2 -48,-4 -30,-6 -36,-22 -18,-18 -6,-44 z"
       id="path4949"
       inkscape:connector-curvature="0" />
  </g>
  <g
     id="g4951"
     transform="matrix(1,0,0,-1,-10762.712,-3905.0509)">
    <path
       unicode="&lt;"
       horiz-adv-x="2420"
       d="M 62,210 854,884 62,1572 62,210 Z m 52,-90 q 10,-10 23,-18 13,-8 28,-14 15,-6 30,-9 15,-3 31,-3 l 1966,0 q 16,0 32,3 16,3 30,9 14,6 27,14 13,8 25,18 L 1494,816 1210,568 926,816 Z m 0,1552 1096,-940 1096,940 q -12,10 -25,18 -13,8 -27,14 -14,6 -29,9 -15,3 -33,3 l -1966,0 q -16,0 -31,-3 -15,-3 -30,-9 -15,-6 -28,-14 -13,-8 -23,-18 z m 1452,-788 792,-674 0,1362 z"
       id="path4953"
       inkscape:connector-curvature="0" />
  </g>
  <g
     id="g4955"
     transform="matrix(1,0,0,-1,-10677.966,-1574.5424)">
    <path
       unicode="&gt;"
       d="M 4,150 Q 2,94 24,44 46,-6 82,-43 q 36,-37 87,-59 51,-22 105,-22 52,0 94,16 42,16 78,45 36,29 60,68 24,39 36,83 54,-14 113,-13 59,1 114,16 55,15 107,44 52,29 94,73 l 456,454 -2,0 -200,200 -456,-454 q -22,-24 -54,-36 -32,-12 -63,-12 -31,0 -63,12 -32,12 -54,38 -28,24 -39,55 -11,31 -12,63 -1,32 12,63 13,31 37,55 l 16,16 -202,200 -14,-14 Q 286,804 258,752 230,700 214,644 198,588 199,530 200,472 212,416 168,404 129,380 90,356 63,321 36,286 19,242 2,198 4,150 Z m 2,1492 q 0,56 21,106 21,50 58,87 37,37 87,59 50,22 106,22 52,0 96,-18 44,-18 81,-49 37,-31 60,-72 23,-41 33,-91 54,14 112,13 58,-1 112,-16 54,-15 105,-44 51,-29 93,-73 l 18,-16 -204,-202 -14,16 q -26,26 -56,38 -30,12 -63,12 -33,0 -63,-13 -30,-13 -56,-37 -24,-24 -37,-55 -13,-31 -12,-63 1,-32 12,-63 11,-31 39,-55 L 570,1088 988,674 784,472 332,926 q -48,46 -77,100 -29,54 -44,113 -15,59 -12,119 3,60 17,118 -44,10 -83,35 -39,25 -67,60 -28,35 -45,79 -17,44 -15,92 z m 588,-530 204,-202 452,454 q 26,24 56,37 30,13 63,13 33,0 63,-13 30,-13 56,-37 24,-24 37,-55 13,-31 12,-63 -1,-32 -12,-63 -11,-31 -39,-55 l -12,-16 198,-202 18,16 q 44,46 74,99 30,53 44,111 14,58 14,118 0,60 -20,118 54,6 96,30 42,24 75,60 33,36 50,82 17,46 19,98 -2,56 -22,106 -20,50 -58,87 -38,37 -87,59 -49,22 -107,22 -50,0 -97,-18 -47,-18 -83,-50 -36,-32 -60,-75 -24,-43 -30,-93 -60,16 -119,18 -59,2 -118,-13 -59,-15 -112,-44 -53,-29 -101,-75 l -36,-40 z m 440,-890 16,-14 q 44,-46 100,-76 56,-30 114,-44 58,-14 120,-12 62,2 118,20 12,-48 35,-88 23,-40 59,-69 36,-29 80,-46 44,-17 96,-17 54,0 105,22 51,22 87,59 36,37 58,87 22,50 20,106 2,52 -17,98 -19,46 -49,82 -30,36 -74,60 -44,24 -92,30 12,56 12,113 0,57 -16,113 -16,56 -44,107 -28,51 -74,95 l -38,38 -416,416 -198,-202 450,-454 q 28,-24 39,-55 11,-31 12,-63 1,-32 -12,-63 -13,-31 -37,-55 -26,-26 -56,-38 -30,-12 -63,-12 -33,0 -63,12 -30,12 -56,38 l -14,14 z"
       id="path4957"
       inkscape:connector-curvature="0" />
  </g>
  <g
     id="g4959"
     transform="matrix(1,0,0,-1,-10974.577,3637.3221)">
    <path
       unicode="A"
       d="m -8,484 8,8 Q 0,368 50,250 102,136 182,52 q 84,-80 190,-132 110,-48 220,-50 l 822,2 9,0 q 117,0 229,50 114,48 200,134 84,82 138,200 50,114 52,242 l -2,488 0,8 q 0,70 -32,104 -27,38 -102,38 l -8,0 -88,2 -7,0 q -59,0 -93,34 -38,34 -38,84 l 0,58 q 0,140 -92,280 -92,142 -232,228 -135,88 -268,88 l -6,0 -432,2 Q 508,1910 386,1862 266,1810 180,1724 94,1636 42,1516 -8,1394 -8,1262 l 0,-778 z m 524,22 6,2 q 0,46 34,80 36,30 82,32 l 740,-2 5,0 q 43,0 79,-32 30,-30 34,-80 -4,-46 -34,-82 -40,-30 -84,-32 l -742,2 -5,0 q -43,0 -81,32 -30,30 -34,80 z m 0,742 4,4 0,9 q 0,44 36,75 27,36 73,36 l 9,0 366,4 q 52,-4 84,-36 36,-38 36,-81 l 0,-10 q 0,-50 -36,-81 -31,-38 -75,-38 l -9,0 -368,-4 q -52,4 -84,36 -38,40 -36,86 z"
       id="path4961"
       inkscape:connector-curvature="0" />
  </g>
  <g
     id="g4963"
     transform="matrix(1,0,0,-1,-10593.221,1073.7627)">
    <path
       unicode="B"
       d="M -2,1244 Q 0,1068 78,896 180,680 362,534 q 20,-10 28,-24 12,-14 14,-34 2,-20 2,-36 0,-14 -2,-40 -2,-24 -2,-36 -2,-20 -22,-186 -18,-164 -24,-252 78,46 260,168 180,124 286,176 182,-30 364,-32 l 24,2 q 194,0 388,58 198,52 366,158 l 0,1406 -1798,2 Q 138,1718 76,1596 14,1468 2,1334 l 2,2 q -4,-46 -6,-92 z m 404,-92 q 2,18 0,26 l 4,10 q 2,92 40,176 40,86 106,154 108,116 264,178 152,62 320,64 l 18,0 18,0 q 296,0 516,-160 106,-78 176,-196 58,-112 62,-230 l -4,-16 0,-6 q 0,-139 -88,-262 -84,-124 -220,-198 -148,-84 -330,-108 -58,-8 -124,-8 -110,0 -228,26 -170,44 -312,146 -102,82 -166,192 -50,108 -52,212 z"
       id="path4965"
       inkscape:connector-curvature="0" />
  </g>
  <g
     id="g4967"
     transform="matrix(1,0,0,-1,-10529.661,6730.5425)">
    <path
       unicode="C"
       d="m -12,902 q 0,-64 32,-118 l 12,10 q 30,-52 80,-82 -4,-36 -6,-74 2,-122 70,-234 Q 248,294 378,208 506,126 670,80 834,36 1012,36 l 12,0 q 246,0 456,84 212,82 330,224 120,138 120,299 l 0,5 0,2 q 0,28 -8,66 54,30 86,82 32,54 32,112 l 0,6 q 0,90 -68,156 -66,64 -158,64 l -2,0 q -92,0 -156,-62 -122,76 -276,122 -152,42 -320,48 l 122,398 342,-74 0,-8 q 0,-72 54,-128 54,-50 130,-54 l 2,4 10,0 q 70,0 120,54 52,50 52,128 0,78 -56,128 -52,54 -125,54 l -5,0 -6,2 q -72,-4 -126,-54 -28,-32 -40,-66 l -370,82 q -12,4 -24,-2 -10,-6 -14,-18 L 990,1242 q -370,-8 -622,-174 -70,64 -152,64 l -2,0 q -94,0 -160,-70 -66,-68 -66,-160 z m 594,-94 4,2 q 0,58 36,94 42,42 92,42 l 2,0 q 52,0 92,-40 38,-40 40,-96 -2,-54 -38,-92 -38,-38 -89,-38 l -5,0 -2,0 q -52,0 -94,38 -36,36 -38,90 z m 86,-450 8,4 q -2,14 8,22 8,10 22,10 12,0 22,-8 76,-78 282,-78 l -2,-2 4,-2 q 196,0 280,84 6,8 20,10 12,-2 22,-8 6,-10 8,-22 -2,-14 -10,-22 -102,-102 -326,-102 l -2,-4 q -4,0 -4,-2 l -4,0 q -222,0 -318,98 -12,8 -10,22 z m 512,448 2,0 q 2,56 36,92 40,40 89,40 l 5,0 4,0 q 50,0 92,-40 34,-38 38,-92 -2,-56 -38,-94 -44,-40 -94,-40 l -2,0 q -54,0 -94,38 -38,40 -38,96 z"
       id="path4969"
       inkscape:connector-curvature="0" />
  </g>
  <g
     id="g4971"
     transform="matrix(1,0,0,-1,-9766.9494,9357.6612)">
    <path
       unicode="D"
       d="m -4,892 4,4 Q 0,688 80,498 162,310 298,172 436,34 624,-46 q 190,-82 398,-82 208,0 398,80 188,82 326,218 136,138 218,326 80,190 80,398 0,208 -80,398 -82,188 -220,326 -136,136 -326,218 -190,80 -398,80 -208,0 -398,-80 Q 434,1754 296,1616 158,1480 78,1290 -4,1100 -4,892 Z m 142,-8 6,8 0,12 0,12 28,2 q 15,-1 33,-1 18,0 39,1 62,0 192,10 126,8 292,36 158,30 312,72 40,-80 70,-148 -16,0 -34,-12 Q 966,846 868,786 766,736 694,668 616,610 560,548 498,494 456,430 410,376 394,344 374,322 364,300 256,420 198,568 138,720 138,884 Z m 14,176 4,4 q 42,200 170,362 126,160 312,248 180,-254 324,-506 -184,-50 -384,-76 -202,-28 -286,-28 -68,-4 -110,-4 l -30,0 z m 314,-876 6,6 q 6,14 16,32 10,16 40,60 30,40 64,82 34,38 92,94 56,50 122,100 62,42 156,94 88,42 192,82 -2,-6 2,0 0,-4 2,0 Q 1290,384 1344,72 1184,0 1011,0 l -9,0 -6,0 Q 698,0 466,184 Z m 326,1538 2,0 q 106,26 204,26 168,0 312,-58 154,-58 266,-164 -8,-20 -38,-44 -16,-26 -78,-76 -48,-50 -144,-102 -84,-54 -198,-94 -148,280 -326,512 z m 394,-654 4,10 q 86,38 172,84 78,48 134,86 46,40 94,78 38,44 60,60 10,22 26,32 188,-234 196,-546 -26,8 -48,8 -30,10 -94,12 -59,13 -111,13 -13,0 -25,-1 -34,6 -70,6 -22,0 -44,-2 l -48,6 q -88,-8 -174,-12 l -14,40 q -20,40 -58,126 z m 124,-304 q 88,8 172,12 l 10,-4 14,0 q 183,0 350,-52 -32,-178 -128,-334 -102,-150 -246,-252 -54,294 -170,622 z"
       id="path4973"
       inkscape:connector-curvature="0" />
  </g>
  <g
     id="g4975"
     transform="matrix(1,0,0,-1,13750,7005.9662)">
    <path
       unicode="E"
       d="m -10,842 4,-282 6,12 Q 0,448 62,342 122,238 228,176 q 104,-62 230,-62 186,0 320,132 132,130 134,318 l 2,652 q -2,44 32,76 28,30 76,30 40,0 76,-32 26,-32 32,-78 l -6,-126 146,-64 202,60 6,146 q -10,118 -66,222 -68,98 -166,160 -110,56 -226,60 -190,-4 -318,-128 -138,-132 -138,-312 l -6,-666 0,-8 q 0,-36 -32,-68 -28,-28 -76,-32 -42,2 -78,30 -28,34 -32,76 l 4,282 z m 1130,-288 2,0 q 4,-120 62,-228 64,-102 168,-166 106,-58 228,-60 124,2 230,62 104,62 166,166 60,106 62,230 l -2,284 -348,0 -2,-294 q 2,-44 -32,-76 -30,-32 -76,-32 -44,0 -78,32 -28,30 -30,76 l 0,286 -210,-60 -140,62 0,-282 z"
       id="path4977"
       inkscape:connector-curvature="0" />
  </g>
  <g
     id="g4979"
     transform="matrix(1,0,0,-1,-127.11865,311.0508)">
    <path
       unicode="F"
       d="m 0,526 532,0 0,982 -204,0 0,-286 -328,0 0,-696 z m 204,162 0,370 122,-2 0,-366 z m 404,614 2,0 204,2 0,202 -206,2 0,-206 z m 2,-776 2,0 204,-2 0,698 -206,-2 0,-694 z m 284,-246 534,-2 -2,944 -530,-2 -2,-694 328,-2 0,-80 -328,-2 0,-162 z m 202,406 2,0 0,372 122,-4 0,-364 z m 408,-406 2,0 532,-4 0,946 -532,-4 0,-692 326,-4 0,-78 -328,-4 0,-160 z m 202,404 2,0 0,374 122,-6 0,-362 z"
       id="path4981"
       inkscape:connector-curvature="0" />
  </g>
  <g
     id="g4983"
     transform="matrix(1,0,0,-1,-1038.1356,5904.2713)">
    <path
       unicode="G"
       d="m 116,714 q 0,-68 12,-136 l 0,2 Q 156,408 250,262 570,1082 896,1624 458,1440 300,1238 186,1096 142,924 116,818 116,714 Z m 272,-638 12,8 q 16,-16 36,-32 18,-16 30,-22 6,-8 18,-14 0,-2 4,-4 2,-2 4,-2 178,-118 388,-138 38,-2 76,-2 168,0 328,66 194,84 330,252 66,88 120,224 52,138 86,288 28,152 54,314 18,164 30,308 6,148 12,262 2,120 4,184 l -2,74 q -2,28 -32,54 -20,14 -52,18 l -6,-4 q -70,-10 -176,-42 Q 976,1224 388,76 Z"
       id="path4985"
       inkscape:connector-curvature="0" />
  </g>
  <g
     id="g4987"
     transform="matrix(1,0,0,-1,3538.1357,5734.7798)">
    <path
       unicode="H"
       d="m -8,1532 2,-1266 6,10 610,0 q 96,0 164,18 80,20 142,64 62,44 100,112 34,70 36,164 -2,116 -58,200 -58,82 -172,116 80,38 126,104 40,60 42,158 -2,88 -28,148 -32,56 -82,96 -72,42 -128,58 -106,18 -164,22 z m 260,-512 2,-2 4,292 266,-6 q 11,2 22,2 25,0 48,-10 34,0 60,-24 32,-10 42,-42 17,-22 17,-59 0,-7 -1,-15 l 0,-5 q 0,-66 -48,-103 -38,-26 -122,-30 z m 6,-554 2,352 310,-4 16,0 q 84,0 126,-38 54,-37 54,-124 l 0,-12 q 1,-8 1,-16 0,-38 -17,-68 -14,-30 -46,-52 -22,-14 -64,-26 -40,-8 -78,-12 l -304,4 0,-4 z m 856,236 6,8 q 2,-104 32,-194 34,-84 92,-152 64,-62 146,-98 88,-32 194,-34 148,0 264,74 116,76 162,238 l -220,2 q -8,-30 -22,-46 -16,-20 -44,-40 -59,-40 -126,-40 l -6,0 -8,0 q -104,0 -154,54 -30,24 -44,78 -18,42 -18,87 l 0,9 656,-2 q 3,16 3,32 0,8 -1,16 l 0,14 q 0,69 -18,140 -24,100 -80,174 -52,74 -142,120 -86,42 -204,44 -104,-2 -190,-38 -82,-38 -148,-102 -60,-66 -96,-152 -32,-94 -34,-192 z m 194,590 2,2 510,2 0,120 -512,2 0,-126 z m 48,-496 8,6 q 0,16 12,58 6,30 32,62 20,24 62,50 38,16 98,20 96,-4 142,-48 46,-58 58,-144 z"
       id="path4989"
       inkscape:connector-curvature="0" />
  </g>
  <g
     id="g4991"
     transform="matrix(1,0,0,-1,6504.2374,9844.9494)">
    <path
       unicode="I"
       d="m 0,-128 1024,0 0,1024 L 0,896 0,-128 Z m 1024,1024 1024,0 0,1024 -1024,0 0,-1024 z"
       id="path4993"
       inkscape:connector-curvature="0" />
  </g>
  <g
     id="g4995"
     transform="matrix(1,0,0,-1,3008.4746,9654.2714)">
    <path
       unicode="J"
       d="m -12,522 q 0,-54 12,-104 l 12,8 970,0 0,584 38,0 46,0 38,0 q 176,-10 302,-66 200,-88 252,-286 4,-30 6,-30 l -340,0 0,262 q 0,22 -22,26 -10,2 -62,12 -54,10 -84,14 -20,2 -56,2 -38,2 -42,2 l 0,-524 970,-2 q 2,18 4,44 4,26 4,42 l 0,18 q 0,154 -114,294 -128,152 -354,244 -248,100 -546,102 l -50,0 0,190 q -118,-12 -266,-26 l 0,-24 0,-150 q 0,-22 -20,-24 Q 470,1082 302,984 148,888 68,770 -12,648 -12,522 Z m 376,98 2,0 q 4,112 112,220 102,110 226,124 l -2,-344 -338,0 z"
       id="path4997"
       inkscape:connector-curvature="0" />
  </g>
  <g
     id="g4999"
     transform="matrix(1,0,0,-1,2436.4407,925.4576)">
    <path
       unicode="K"
       d="m 170,-128 752,0 0,436 -204,142 30,50 174,-122 -2,354 206,-2 -2,-226 172,88 28,-52 -200,-108 0,-156 322,158 24,-48 -346,-180 -2,-334 754,-4 -856,2052 z"
       id="path5001"
       inkscape:connector-curvature="0" />
  </g>
  <g
     id="g5003"
     transform="matrix(1,0,0,-1,-7817.7968,-4116.9154)">
    <path
       unicode="L"
       d="m 74,1806 2,-1830 2,8 q 0,-86 60,-108 12,-4 24,-4 32,0 70,22 l 1246,690 426,228 q 62,34 64,84 -2,52 -64,84 l -428,238 -1244,680 q -25,15 -53,15 -6,0 -13,-1 l -30,4 Q 76,1878 74,1806 Z"
       id="path5005"
       inkscape:connector-curvature="0" />
  </g>
  <g
     id="g5007"
     transform="matrix(1,0,0,-1,-5508.4747,-2909.2882)">
    <path
       unicode="M"
       d="m 266,320 20,16 q 0,-34 38,-36 46,1 73,1 27,0 35,-1 138,-6 164,-12 162,-18 312,-132 96,-70 144,-106 170,-112 308,-158 70,-20 122,-22 16,2 28,2 114,16 180,124 62,104 62,228 0,12 -6,98 -2,0 -6,-4 -4,0 -6,-4 -2,0 -4,-2 -46,-32 -102,-48 -50,-12 -108,-14 -62,2 -134,14 -80,20 -192,78 -54,32 -190,110 -130,82 -244,92 -20,4 -56,4 -2,28 2,42 4,14 20,32 l 886,1022 q 10,14 16,36 4,48 20,160 0,32 -30,32 -6,0 -6,-2 l -6,0 q -8,-2 -6,-2 -222,-42 -414,-46 l -32,0 q -162,0 -286,22 -84,18 -148,50 -12,10 -27,10 l -5,0 -2,0 q -15,0 -32,-22 -50,-76 -80,-126 -28,-56 -38,-134 2,-6 0,-14 0,-32 10,-52 14,-22 52,-44 48,-22 118,-34 42,-2 88,-4 84,0 186,14 l 92,16 q 0,-2 -6,-8 -2,-6 -6,-8 L 290,566 q -20,-22 -20,-50 -4,-38 -4,-102 l 0,-94 z"
       id="path5009"
       inkscape:connector-curvature="0" />
  </g>
  <g
     id="g5011"
     transform="matrix(1,0,0,-1,-3453.3899,-4922.0001)">
    <path
       unicode="N"
       d="m -24,1480 24,18 8,-4 q 44,-18 94,-68 56,-50 86,-108 Q 290,1126 440,752 598,378 670,216 l 94,0 292,576 250,-576 80,-2 522,1188 q 26,56 82,80 24,10 52,14 l -6,66 -408,4 -4,-72 q 116,-22 138,-90 L 1394,544 q -108,214 -202,454 2,16 38,82 22,64 42,94 6,28 38,80 16,48 48,92 12,36 48,78 34,58 160,70 l -12,64 -426,0 -12,-68 q 34,0 38,-2 24,0 36,-6 32,-4 34,-14 20,-8 18,-24 14,-16 2,-38 -12,-46 -40,-94 -18,-48 -54,-110 -22,-60 -44,-92 l -132,308 q -8,20 4,32 0,14 22,20 8,8 30,12 6,2 34,6 l -10,64 -482,4 -10,-70 q 52,0 68,-4 28,0 56,-14 40,-10 48,-36 58,-94 130,-278 84,-180 112,-248 L 758,492 374,1364 q 0,16 -4,28 2,32 28,54 44,28 104,38 l 4,68 -524,2 -2,-4 z"
       id="path5013"
       inkscape:connector-curvature="0" />
  </g>
  <g
     id="g5015"
     transform="matrix(1,0,0,-1,-7944.9154,-1553.356)">
    <path
       unicode="O"
       d="m 136,822 14,8 q 0,-246 96,-472 98,-226 270,-388 120,-98 232,-98 42,0 122,26 148,58 190,58 68,0 150,-42 104,-38 178,-38 120,0 190,50 94,66 180,202 92,136 128,266 -124,32 -206,162 -76,126 -78,276 2,74 28,156 30,82 86,150 56,66 124,88 -36,70 -96,128 -122,110 -294,110 -56,0 -250,-74 -66,-28 -148,-28 -82,0 -166,48 -98,52 -219,52 l -9,0 -8,0 q -108,0 -206,-54 -96,-52 -166,-144 -64,-86 -104,-204 -36,-114 -38,-238 z m 862,628 4,0 q 168,0 296,138 116,136 116,324 -176,-30 -294,-158 -122,-152 -122,-304 z"
       id="path5017"
       inkscape:connector-curvature="0" />
  </g>
  <g
     id="g5019"
     transform="matrix(1,0,0,-1,-7966.1019,1349.1865)">
    <path
       unicode="P"
       d="m -12,10 12,8 q 8,6 14,12 l 450,450 q 12,14 12,28 l 0,170 q 0,110 -2,198 0,90 2,170 2,92 14,164 30,164 178,210 46,12 62,14 92,0 282,6 l 4,-2 0,-336 q 10,-18 20,-26 14,-8 30,4 l 814,816 q 2,0 2,4 4,4 6,8 2,0 4,2 l -1168,-2 -21,0 q -101,0 -181,-18 -356,-72 -472,-404 -60,-162 -60,-382 0,-178 -2,-538 l 0,-538 0,-18 z m 146,-146 2,-2 1164,-2 q 110,2 204,20 344,74 460,388 64,161 64,366 l 0,24 q 1,91 1,226 0,135 -1,314 1,181 1,316 0,135 -1,224 l 2,18 -2,0 q 0,0 -2,2 -4,0 -4,2 -2,-4 -2,-6 -4,-4 -4,-6 l -4,-4 -450,-450 q -10,-10 -12,-30 l 2,-272 0,-154 q 0,-120 -2,-122 0,-76 -16,-160 -32,-152 -164,-200 -50,-16 -96,-22 -86,-2 -260,-6 l -10,2 0,328 q 0,24 -18,34 -18,6 -38,-12 0,-2 -4,-2 L 942,674 346,76 Z"
       id="path5021"
       inkscape:connector-curvature="0" />
  </g>
  <g
     id="g5023"
     transform="matrix(1,0,0,-1,-4978.8137,9823.7629)">
    <path
       unicode="Q"
       d="m 78,558 q -2,-16 14,-24 l 20,16 q 12,-14 38,-32 2,-2 10,-6 4,-2 24,-18 l 36,-36 q 14,-20 40,-56 18,-36 38,-80 l 0,-10 2,0 8,-22 q 14,-24 20,-34 12,-10 32,-36 24,-28 44,-38 24,-10 60,-32 38,-20 76,-20 30,-4 68,-4 l 26,0 q 52,0 114,14 0,-228 2,-230 155,-40 318,-40 l 16,0 14,0 q 152,0 318,40 -2,2 -2,35 0,33 2,97 -1,65 -1,123.5 0,58.5 1,110.5 -2,172 -92,248 68,12 128,20 58,16 122,36 66,28 114,56 54,38 98,82 50,58 78,114 34,74 50,154 19,85 19,168 0,15 -1,30 l 0,12 q 0,212 -138,350 12,26 14,46 10,32 12,74 4,22 2,34 l 0,16 q 0,31 -6,60 -8,66 -36,126 -2,6 -14,2 l -6,6 q -14,-6 -34,-2 -34,-8 -72,-14 -40,-18 -104,-44 -68,-38 -138,-80 -164,38 -338,44 -184,-8 -338,-44 -210,134 -338,140 l -6,-6 -26,2 q -26,-70 -34,-128 -8,-44 -8,-74 l 0,-36 q 6,-50 12,-74 6,-30 14,-46 -138,-156 -138,-362 0,-112 18,-198 18,-94 50,-154 32,-68 80,-116 46,-56 98,-84 48,-38 116,-58 60,-28 122,-36 56,-16 128,-20 -72,-66 -86,-180 -30,-18 -60,-22 -32,-14 -76,-14 l -24,-4 q -32,4 -66,8 -40,14 -88,44 -44,40 -80,92 0,12 -8,12 -4,18 -26,30 -18,32 -42,40 -20,26 -58,32 -26,19 -56,19 -8,0 -16,-1 l -6,8 -2,-8 -14,6 q -18,-8 -18,-4 -6,-10 -14,-8 -8,-14 -6,-12 z"
       id="path5025"
       inkscape:connector-curvature="0" />
  </g>
  <g
     id="g5027"
     transform="matrix(1,0,0,-1,-7860.1697,8870.3731)">
    <path
       unicode="R"
       d="m 360,888 6,8 Q 366,688 446,498 526,310 664,172 798,34 990,-46 q 186,-82 398,-82 78,0 146,10 l -4,142 Q 1479,12 1406,12 l -22,0 -10,0 q -171,0 -334,70 -158,68 -282,188 -114,116 -188,282 -66,160 -70,344 2,176 68,344 72,158 188,282 120,112 282,188 164,64 344,70 84,-6 146,-12 l 0,134 q -44,12 -97,12 -24,0 -49,-2 -17,1 -35,1 -189,0 -363,-81 Q 796,1758 658,1612 522,1484 440,1286 360,1104 360,888 Z m 298,-12 2,20 q 0,-204 96,-362 98,-174 262,-264 159,-98 341,-98 l 21,0 q 20,-1 38,-1 62,0 108,15 l 2,202 q -66,-14 -146,-22 -142,6 -260,68 -122,76 -190,188 -70,123 -70,253 l 0,7 0,8 q 0,141 70,252 66,124 188,188 110,70 245,70 l 15,0 12,0 q 71,0 134,-22 l -4,210 q -56,12 -146,14 l -4,-2 q -150,0 -278,-60 -136,-56 -228,-156 -98,-94 -152,-230 -56,-122 -56,-260 l 0,-18 z m 424,-4 8,8 q 4,-150 100,-242 106,-92 250,-92 148,0 224,84 l -124,136 q -44,-48 -92,-48 l -4,0 -6,0 q -73,0 -108,44 -44,39 -44,105 l 0,11 0,11 q 0,61 40,103 38,40 114,42 56,-2 96,-48 l 124,132 q -76,86 -226,86 -144,0 -250,-92 -96,-92 -102,-240 z"
       id="path5029"
       inkscape:connector-curvature="0" />
  </g>
  <g
     id="g5031"
     transform="matrix(1,0,0,-1,-8114.4069,5205.1188)">
    <path
       unicode="S"
       d="m -12,1166 2,-360 10,0 360,0 0,-900 358,0 0,900 538,0 0,-900 358,0 0,900 358,0 0,360 -358,0 0,180 q 0,76 38,130 38,54 84,54 l 304,0 0,356 -304,0 q -132,0 -244,-72 -110,-72 -176,-196 -64,-124 -64,-272 l 0,-180 -540,0 0,180 q 0,76 38,130 38,54 86,54 l 302,0 2,356 -308,0 q -128,0 -242,-72 -110,-72 -176,-196 -64,-124 -66,-272 l 2,-180 -362,0 z"
       id="path5033"
       inkscape:connector-curvature="0" />
  </g>
  <g
     id="g5035"
     transform="matrix(1,0,0,-1,13008.475,-2972.8475)">
    <path
       unicode="T"
       d="m 458,592 28,18 q 0,-60 42,-102 42,-42 102,-42 38,0 70,18 l 250,-180 0,-432 140,0 0,142 244,176 q 34,-20 76,-22 58,0 102,42 40,42 42,102 -2,60 -42,102 -44,42 -102,42 -62,0 -104,-44 -42,-40 -42,-97 l 0,-5 q -2,-12 0,-18 l -178,-128 0,430 244,176 q 34,-20 76,-22 58,0 102,42 40,42 42,102 -2,60 -42,102 -44,42 -102,42 -62,0 -104,-44 -42,-40 -42,-97 l 0,-5 q -2,-12 0,-18 l -178,-128 0,402 246,178 q 36,-20 74,-22 60,2 102,42 42,44 42,102 0,60 -42,102 -42,42 -102,42 -60,0 -104,-42 -42,-42 -42,-102 0,-8 2,-20 l -178,-130 0,612 -142,0 0,-322 -180,128 q 2,14 2,26 0,62 -42,102 -42,44 -102,44 -60,0 -104,-44 -42,-42 -42,-102 0,-60 42,-102 42,-42 102,-42 36,0 68,16 l 250,-182 0,-404 -180,130 q 2,16 2,24 0,60 -42,102 -40,42 -97,42 l -5.5,0 -4.5,0 q -57,0 -99,-42 -42,-42 -42,-104 0,-58 42,-102 42,-40 102,-42 36,0 70,18 L 926,872 928,440 746,570 q 4,16 2,24 l 0,5 q 0,57 -42,97 -40,42 -102,42 -58,0 -104,-44 -40,-42 -42,-102 z"
       id="path5037"
       inkscape:connector-curvature="0" />
  </g>
  <g
     id="g5039"
     transform="matrix(1,0,0,-1,9915.2545,-3777.9323)">
    <path
       unicode="U"
       d="m -8,942 8,10 Q 0,828 32,710 66,592 124,492 186,392 270,308 356,224 458,166 560,106 680,74 802,42 926,42 q 220,0 410,92 l 708,-204 -234,728 q 50,136 50,270 l 0,20 0,18 q 0,178 -74,334 -70,172 -198,290 -120,124 -298,192 -164,72 -352,72 l -10,0 Q 742,1854 564,1782 396,1710 266,1588 146,1466 66,1296 -4,1128 -8,942 Z m 296,-20 0,14 8,6 0,15 q 0,160 84,295 82,142 230,224 141,82 310,82 l 8,0 8,0 q 164,0 308,-82 142,-82 230,-226 80,-140 84,-310 -4,-110 -42,-218 l 114,-328 4,-2 6,-28 44,-110 -152,40 -316,98 Q 1072,324 922,320 746,324 604,402 454,490 372,626 288,768 288,922 Z"
       id="path5041"
       inkscape:connector-curvature="0" />
  </g>
  <g
     id="g5043"
     transform="matrix(1,0,0,-1,6864.4069,-4307.5933)">
    <path
       unicode="V"
       d="m 92,1704 4,-1016 6,2 Q 102,524 166,372 232,220 340,110 452,0 602,-64 q 152,-66 318,-66 l 204,0 q 166,0 318,60 152,62 262,162 110,106 174,244 64,142 64,289 l 0,9 0,10 q 0,206 -82,374 -80,182 -224,278 -131,103 -285,103 -11,0 -23,-1 l -408,8 q -86,-8 -144,-60 -62,-68 -62,-144 0,-94 58,-146 54,-61 127,-61 9,0 17,1 l 408,-8 q 5,1 10,1 70,0 128,-107 64,-93 64,-235 l 0,-17 0,-9 q 0,-135 -120,-243 -116,-98 -290,-106 l -200,8 -20,0 Q 735,280 626,400 506,508 506,677 l 0,11 -4,1016 0,11 q 0,84 -60,133 -50,61 -126,61 -9,0 -18,-1 -9,1 -17,1 -72,0 -129,-61 -56,-52 -60,-144 z"
       id="path5045"
       inkscape:connector-curvature="0" />
  </g>
  <g
     id="g5047"
     transform="matrix(1,0,0,-1,-762.71188,-4477.0849)">
    <path
       unicode="W"
       d="m 65,220 q 0,-5 3,-12 l 70,58 q 10,-22 40,-24 28,-2 50,10 22,10 36,32 14,18 22,38 6,12 14,40 l 6,24 q 16,40 80,164 64,112 76,126 4,-2 50,46 44,36 72,64 8,2 32,28 22,12 38,30 14,4 34,22 18,2 32,10 34,-8 80,-36 40,-44 46,-68 -2,-14 0,-12 -2,-54 -34,-118 -8,-30 -6,-28 0,-14 8,-30 0,-10 8,-32 8,-36 18,-56 6,-34 18,-56 10,-40 18,-52 8,-28 12,-24 32,-21 65,-21 l 15,1 10,-6 q 46,10 46,28 2,28 -26,40 -26,28 -50,30 -30,20 -30,28 0,12 -4,20 l -10,44 0,-6 -8,38 q 20,12 46,48 26,20 44,46 l 14,12 q 16,-2 26,-8 4,-80 54,-294 6,-12 6,-40 4,-18 4,-40 0,-12 2,-52 0,-28 2,-54 l 0,-48 q 0,0 -2,-96 -4,-90 -4,-102 0,-28 30,-58 30,-16 64,-22 30,6 60,16 24,20 30,40 0,20 -6,32 -10,20 -18,24 l -12,12 q -28,124 -30,210 2,208 10,230 16,30 28,90 18,50 22,90 l 10,34 q 14,2 46,0 24,2 94,10 64,10 106,28 10,-44 10,-104 l 0,-10 0,-22 q 0,-44 -6,-82 -4,-54 -16,-108 -8,-56 -16,-86 -4,-30 -12,-46 -4,-22 -6,-54 l 2,-14 q 0,-42 12,-68 6,-24 40,-40 26,-14 54,-14 18,0 52,18 26,20 32,36 0,14 -10,30 -14,22 -30,42 l -20,24 q -10,14 -8,40 l 0,11 q 0,32 10,73 4,44 30,106 18,72 34,92 42,86 44,148 0,14 -2,20 28,32 54,98 26,72 30,132 l -2,12 0,6 q 0,57 -32,184 -32,142 -46,174 -8,24 -4,44 10,16 20,44 16,20 24,74 11,31 11,66 0,10 -1,20 l 4,12 q 8,10 24,28 4,18 16,34 l -4,12 q 8,0 4,-8 l 12,-10 -4,-2 14,-12 q 6,-14 8,0 8,16 12,44 -4,8 -2,18 -10,40 -16,68 -14,28 -22,52 -34,52 -88,52 l -10,0 q -46,30 -112,46 -54,12 -94,14 l -2,-2 -42,0 q -44,6 -94,8 -48,-2 -92,-10 -34,-14 -52,-22 l -10,-14 -14,2 q -30,-2 -64,-16 -26,-4 -66,-28 -32,-26 -40,-64 0,-48 -2,-78 0,-76 14,-78 24,-6 40,26 2,-22 10,-38 8,-18 16,-24 l 6,-8 q -10,-80 -14,-158 -118,-6 -218,-22 -96,-10 -152,-24 -50,-10 -90,-24 -34,-8 -50,-16 -12,-4 -16,-4 -40,18 -76,52 -32,36 -56,76 -18,40 -32,76 -10,34 -16,64 -6,58 -18,60 l 0,-2 q -6,0 -8,-16 -2,-28 -2,-60 0,-34 4,-72 8,-62 26,-104 14,-38 38,-72 18,-30 36,-46 10,-10 20,-16 4,-6 4,-12 -4,0 -14,-12 -14,-8 -34,-38 -24,-24 -60,-96 -38,-68 -62,-154 -52,-158 -94,-398 -4,-6 -14,-34 -16,-22 -34,-66 -22,-38 -34,-72 -90,-58 -88,-102 -1,-2 -1,-4 z"
       id="path5049"
       inkscape:connector-curvature="0" />
  </g>
  <g
     id="g5051"
     transform="matrix(1,0,0,-1,3262.7119,-4371.1526)">
    <path
       unicode="X"
       d="m -10,318 10,6 114,-46 Q 146,134 260,40 376,-54 524,-54 686,-54 806,56 924,164 940,324 l 538,394 q 152,0 282,76 128,74 204,204 74,128 76,282 -2,152 -76,282 -76,128 -204,204 -132,74 -284,76 -154,-2 -280,-74 -132,-76 -206,-204 -78,-130 -78,-280 L 560,780 q -28,2 -44,2 -116,0 -214,-60 l -312,126 0,-530 z m 246,-106 6,2 152,-60 q 46,-20 90,-20 l 96,20 q 92,40 130,134 18,46 18,90 0,48 -20,96 -40,94 -136,132 l -128,52 q 32,8 66,8 126,0 220,-90 86,-90 90,-220 Q 816,228 730,138 636,48 510,48 418,48 350,92 272,136 236,212 Z m 848,1056 2,2 q 4,158 110,266 114,112 266,112 160,0 266,-112 110,-105 110,-251 l 0,-15 0,-15 q 0,-146 -110,-253 -106,-110 -268,-110 -150,0 -266,110 -104,110 -110,266 z m 81,21 q 0,-11 1,-23 l 0,2 0,-15 q 0,-115 88,-199 82,-86 214,-88 116,0 214,88 78,88 88,212 -10,126 -88,212 -96,88 -209,88 l -5,0 -6,0 q -130,0 -208,-88 -89,-78 -89,-189 z"
       id="path5053"
       inkscape:connector-curvature="0" />
  </g>
  <g
     id="g5055"
     transform="matrix(1,0,0,-1,-5127.1188,-727.0848)">
    <path
       unicode="Y"
       d="m -4,886 4,8 Q 0,718 58,554 116,392 224,256 q -4,10 -6,22 -6,18 -6,66 l -2,18 q 2,42 8,98 12,54 42,154 36,90 90,196 58,98 158,238 106,132 238,278 -128,78 -254,148 -114,62 -174,92 l -46,18 Q 134,1452 68,1264 -4,1104 -4,915 l 0,-29 z M 274,188 Q 422,32 608,-44 q 180,-85 371,-85 16,0 33,1 18,-1 35,-1 200,0 371,85 198,76 334,234 4,0 -8,26 0,6 -28,72 -20,44 -56,112 -28,46 -92,144 -56,74 -134,170 -68,72 -184,188 -108,88 -242,198 Q 896,1000 788,916 690,806 612,734 544,634 480,562 424,464 382,410 350,330 320,292 298,226 282,210 Z m 66,1458 10,4 q 6,20 28,14 14,19 66,19 9,0 20,-1 19,12 41,12 16,0 33,-6 11,6 25,6 17,0 37,-10 6,1 13,1 66,0 171,-53 108,-32 226,-130 l -2,14 q 84,46 164,100 82,26 146,58 64,0 122,24 30,-14 58,2 20,-16 42,-4 27,-14 52,-14 10,0 20,2 26,-24 44,-16 l 12,-22 q -134,132 -308,180 -140,67 -294,67 -31,0 -62,-3 -31,3 -62,3 -153,0 -296,-67 -168,-48 -306,-180 z m 930,-336 4,6 q 106,-128 194,-220 84,-122 142,-196 52,-104 96,-170 38,-98 62,-146 16,-80 32,-120 6,-72 12,-96 l -6,-30 q 6,-14 -2,-52 4,-12 -6,-42 l 2,2 q 100,118 166,296 50,148 58,338 -8,186 -72,378 -80,166 -202,318 -188,-92 -480,-266 z"
       id="path5057"
       inkscape:connector-curvature="0" />
  </g>
  <g
     id="g5059"
     transform="matrix(1,0,0,-1,-4957.6272,2217.8305)">
    <path
       unicode="Z"
       d="m -2,828 2,0 4,-676 838,-110 0,786 -844,0 z m 0,102 842,0 0,820 L 0,1630 Z m 922,-900 1124,-154 -2,952 -1120,0 z m 0,900 1122,0 0,986 -1122,-152 0,-834 z"
       id="path5061"
       inkscape:connector-curvature="0" />
  </g>
  <g
     id="g5063"
     transform="matrix(1,0,0,-1,-4427.9662,6603.4239)">
    <path
       unicode="a"
       d="m -14,176 14,20 q 50,-6 100,-6 292,0 522,180 -138,2 -244,84 -110,80 -148,208 33,-8 65,-8 l 13,0 12,0 q 49,0 96,14 -144,28 -242,144 -94,112 -96,266 l 2,2 q 88,-46 190,-52 -86,58 -138,148 -50,92 -50,198 0,114 56,210 158,-192 382,-310 224,-114 482,-130 -12,50 -12,94 0,174 122,296 124,122 296,122 184,0 306,-132 142,26 264,100 -44,-152 -184,-234 126,14 240,66 -82,-128 -210,-216 4,-38 2,-54 l 0,-16 q 0,-114 -26,-226 Q 1778,822 1724,706 1674,586 1600,482 1528,374 1426,286 1326,194 1206,130 1090,62 940,26 794,-12 630,-12 284,-12 -14,176 Z"
       id="path5065"
       inkscape:connector-curvature="0" />
  </g>
  <g
     id="g5067"
     transform="matrix(1,0,0,-1,4491.5255,3933.9323)">
    <path
       unicode="b"
       d="m 524,772 2,4 0,346 254,0 0,296 q 0,88 30,168 28,76 88,140 56,62 156,98 94,36 222,36 58,0 122,-4 58,-4 90,-6 l 28,-4 -6,-322 -220,0 q -90,0 -116,-36 -30,-36 -30,-107 l 0,-9 -2,-254 378,0 -18,-346 -358,0 -2,-960 -364,0 -2,960 -252,0 z"
       id="path5069"
       inkscape:connector-curvature="0" />
  </g>
  <g
     id="g5071"
     transform="matrix(1,0,0,-1,-423.72882,9505.9663)">
    <path
       unicode="c"
       d="M -14,272 0,288 Q 0,156 122,60 242,-42 486,-44 q 294,4 446,138 148,127 148,289 l 0,8.5 0,8.5 q 0,114 -54,184 -54,74 -130,132 l -76,68 q -18,10 -36,40 -22,18 -22,60 0,32 20,66 22,26 38,48 l 68,54 q 30,38 54,66 54,84 54,200 0,76 -16,118 -20,62 -42,88 -22,42 -52,64 l -14,20 0,-8 -12,20 q -14,6 -12,8 2,-12 -12,2 l 144,-4 144,84 -466,-2 q -102,0 -198,-20 -112,-26 -206,-104 -146,-140 -146,-310 0,-144 102,-250 96,-114 284,-116 28,0 74,4 l -18,-40 q -4,-20 -8,-50 2,-52 22,-88 22,-40 44,-72 -66,0 -206,-20 Q 284,620 166,556 70,496 26,416 -10,334 -14,272 Z m 192,34 0,8 10,6 0,16 q 0,54 24,90 18,44 54,70 30,30 64,42 l 46,22 q 76,20 146,32 50,2 74,4 l 20,-2 q 18,2 50,-2 Q 794,502 856,440 910,376 914,284 910,178 830,106 738,36 578,34 390,38 290,114 178,193 178,306 Z m 112,1054 0,12 0,12 4,4 0,13 q 0,86 50,149 55,76 149,76 l 9,0 6,0 q 63,0 120,-42 46,-38 86,-110 64,-136 70,-278 -6,-22 -6,-78 -14,-44 -38,-90 -66,-60 -154,-66 -78,2 -130,42 -58,46 -92,106 -74,133 -74,250 z m 826,-202 2,8 4,138 384,4 4,384 118,4 4,-394 384,4 4,-146 -392,2 2,-392 -126,0 2,388 -390,0 z"
       id="path5073"
       inkscape:connector-curvature="0" />
  </g>
  <g
     id="g5075"
     transform="matrix(1,0,0,-1,11313.56,-1532.1695)">
    <path
       unicode="d"
       d="m 188,1082 16,20 q 0,106 32,210 34,104 106,204 72,98 172,174 104,78 244,122 144,42 312,44 168,-2 314,-58 142,-62 242,-156 96,-98 152,-222 54,-130 54,-260 0,-364 -184,-598 -180,-236 -467,-236 l -5,0 -8,0 q -93,0 -172,44 Q 912,412 878,478 802,170 794,144 756,-4 620,-192 l -82,-4 q -12,106 -12,190 0,126 22,216 l 156,664 q -38,76 -40,194 2,130 68,222 70,88 166,88 80,0 120,-52 42,-52 42,-130 0,-54 -18,-120 -20,-78 -48,-164 -22,-68 -42,-148 -6,-26 -6,-50 0,-64 42,-114 60,-70 154,-70 172,0 278,188 108,185 108,448 l 0,10 0,6 q 0,200 -134,330 -132,124 -372,128 -266,-4 -432,-170 -164,-176 -166,-412 2,-144 80,-240 20,-26 20,-48 0,-12 -2,-18 -8,-34 -24,-98 -6,-26 -24,-30 -16,-12 -38,-2 -122,48 -186,174 -62,124 -62,286 z"
       id="path5077"
       inkscape:connector-curvature="0" />
  </g>
  <g
     id="g5079"
     transform="matrix(1,0,0,-1,12669.492,2154.2712)">
    <path
       unicode="e"
       d="m -8,825 0,5 8,8 q 0,100 70,168 l 780,782 q 70,68 168,70 100,-2 168,-70 l 354,-354 -532,-528 -246,246 q -54,54 -124,54 l -10,0 -10,0 q -73,0 -122,-54 L 334,996 q -52,-58 -54,-132 0,-82 54,-132 L 874,186 q 36,-34 88,-50 l 6,-2 38,-4 q 74,4 132,54 l 820,826 6,-6 q 68,-68 70,-170 -2,-98 -70,-170 l -782,-780 q -66,-70 -165,-70 l -5.5,0 -4.5,0 q -95,0 -165,70 L 62,662 Q -8,732 -8,825 Z m 394,29 6,6 q 2,24 18,48 l 162,154 q 16,24 48,18 24,6 48,-18 l 328,-330 770,758 q 10,21 37,21 4,0 9,-1 l 4,0 q 20,0 42,-20 l 154,-158 q 21,-19 21,-41 0,-4 -1,-7 1,-4 1,-8 0,-24 -21,-38 L 1046,264 q -18,-12 -48,-14 l -4,6 2,-2 q -4,2 -4,-2 -6,0 -6,-2 -26,4 -40,16 L 406,808 q -20,18 -20,46 z"
       id="path5081"
       inkscape:connector-curvature="0" />
  </g>
  <g
     id="g5083"
     transform="matrix(1,0,0,-1,12309.322,5014.4408)">
    <path
       unicode="f"
       d="m -12,1370 12,112 q 10,4 84,4 70,0 170,-2 30,-2 66,-2 66,0 144,2 62,2 156,2 60,0 134,-2 182,-2 214,-6 l -10,-72 q -20,-4 -146,-14 -128,-8 -156,-14 80,-118 244,-330 162,-212 186,-246 12,20 112,98 96,80 188,158 84,82 94,116 -46,8 -138,20 -106,14 -120,14 l -24,92 q 26,4 96,4 80,0 184,-2 112,-2 150,-2 332,0 410,-6 l -60,-88 q -42,-6 -234,-48 -28,-6 -162,-106 Q 1450,952 1318,834 1186,718 1170,674 1160,624 1160,548 l -4,-76 q 0,-40 22,-186 16,-4 150,-4 136,0 154,-4 l -2,-96 q -46,2 -504,2 -32,0 -212,-6 -132,-2 -190,-2 l -44,0 12,90 76,0 q 78,0 128,8 60,6 74,26 8,4 8,8 4,4 4,12 4,6 2,14 2,4 2,22 l 0,24 0,4 -2,34 0,48 0,62 q 0,78 -6,130 -16,40 -248,328 -234,282 -310,344 -18,2 -140,20 -120,10 -142,20 z"
       id="path5085"
       inkscape:connector-curvature="0" />
  </g>
  <g
     id="g5087"
     transform="matrix(1,0,0,-1,11207.627,8319.5256)">
    <path
       unicode="g"
       d="m 0,1298 14,6 Q 14,1152 90,1020 72,930 70,828 72,634 146,452 224,276 350,146 482,18 656,-60 q 182,-74 374,-76 90,0 174,16 128,-66 262,-66 154,0 278,74 134,74 202,204 75,115 75,253 0,13 -1,27 1,14 1,27 0,112 -59,221 24,74 24,160 0,22 -2,46 1,19 1,38 0,134 -49,264 -40,146 -138,264 -80,118 -208,208 -110,86 -264,138 -140,44 -304,48 -76,-4 -166,-14 -126,80 -296,84 -106,-4 -218,-44 Q 248,1764 164,1692 98,1614 44,1514 8,1406 0,1298 Z m 422,-766 30,14 q -1,6 -1,13 0,47 41,77 30,38 94,38 l 6,0 q 44,0 84,-30 28,-30 54,-82 20,-58 54,-98 26,-40 80,-64 44,-24 138,-24 116,0 192,50 66,50 70,120 -4,58 -38,92 -42,36 -102,56 -74,22 -178,44 -148,30 -252,76 -108,42 -166,120 -62,74 -62,179 l 0,13 0,12 q 0,101 64,182 60,82 186,128 116,44 282,44 128,0 224,-30 94,-30 158,-80 60,-50 92,-104 28,-56 30,-110 -2,-54 -38,-94 -42,-40 -100,-40 -56,0 -82,24 -28,24 -58,74 -36,70 -86,106 -50,38 -162,38 -104,0 -166,-42 -62,-38 -60,-92 -2,-32 18,-56 20,-26 56,-44 34,-18 78,-30 86,-22 132,-32 114,-26 212,-56 96,-34 164,-76 64,-44 106,-114 36,-72 38,-170 -2,-120 -68,-214 -70,-96 -196,-148 -130,-54 -300,-54 -212,0 -346,72 -100,52 -158,140 -64,88 -64,172 z"
       id="path5089"
       inkscape:connector-curvature="0" />
  </g>
  <g
     id="g5091"
     transform="matrix(1,0,0,-1,-3050.8475,-2316.0679)">
    <path
       unicode="h"
       d="m 184,540 q 2,8 0,16 l 10,4 0,6 30,348 q 0,36 46,62 14,8 38,6 18,-2 38,-8 l 14,-6 438,-218 q 2,-4 18,-12 4,-6 28,-28 10,-22 18,-46 -8,-24 -8,-42 -14,-16 -12,-22 -14,-4 -20,-12 -22,-8 -16,-8 L 292,468 q 0,-4 -20,-8 -6,-2 -40,0 -16,2 -34,18 2,8 -8,18 2,12 -4,24 2,10 -2,20 z m 210,1076 0,8 10,8 q 0,14 8,22 6,16 24,26 10,12 26,16 l 4,4 410,150 q -4,0 14,4 4,4 18,4 l -6,0 q 14,0 22,-4 26,-6 38,-18 26,-10 28,-38 20,-26 14,-48 l 12,-22 -4,-692 q 8,-4 0,-10 6,-6 -6,-20 2,-16 -12,-28 0,-12 -20,-24 -6,-12 -28,-16 -18,-6 -48,2 -18,6 -36,18 l -4,8 -426,572 q 4,0 -2,2 0,4 -8,10 -4,8 -10,16 -4,8 -10,18 -2,12 -6,20 0,8 -2,12 z m 108,-1648 4,8 q -2,2 -2,12 0,8 4,26 8,18 16,38 l 10,8 338,380 q 2,-6 6,4 4,-4 16,10 10,0 22,10 8,-4 26,4 12,-4 26,-6 14,-14 28,-26 6,-24 12,-30 l -2,-18 -4,-500 q -4,-8 0,-18 -2,-22 -8,-38 -12,-26 -28,-26 -13,-7 -24,-7 -4,0 -8,1 -11,-2 -18.5,-2 -7.5,0 -11.5,2 l -14,0 -338,108 q -40,16 -50,60 z m 648,816 6,8 q 4,20 4,30 l 10,14 270,430 q 8,6 8,14 12,10 26,24 22,12 34,12 l 8,0 q 16,-2 34,-12 12,-8 20,-18 l 2,-8 234,-274 q 0,-6 4,-14 0,-6 6,-30 4,-22 -2,-36 -4,-16 -22,-32 -20,-16 -36,-24 l -16,-6 -486,-142 q -8,-2 -20,-2 -12,-2 -38,4 -26,8 -36,24 -10,22 -10,38 z m 11,-306.5 q 0,1.5 1,4.5 l 6,4 q 0,24 16,42 14,12 34,18 14,2 24,2 4,0 8,-2 l 12,-2 488,-156 8,-2 q 0,-2 16,-6 8,-4 22,-10 4,-6 16,-18 0,-10 6,-22 -6,-16 -6,-34 -12,-16 -12,-26 l -10,-10 -202,-294 q -40,-32 -74,-32 -20,0 -36,14 -24,14 -32,30 l -14,12 -258,436 q -6,4 -6,18 -6,6 -6,23 l 0,9 q -1,0 -1,1.5 z"
       id="path5093"
       inkscape:connector-curvature="0" />
  </g>
  <g
     id="g5095"
     transform="matrix(1,0,0,-1,-2478.8136,7641.5595)">
    <path
       unicode="i"
       d="m 304,712 4,14 q 0,-204 52,-376 52,-170 142,-288 90,-114 216,-182 124,-64 272,-66 l 2,0 q 138,0 272,60 140,62 240,160 106,100 166,230 66,128 66,255 l 0,7 2,8 q -2,114 -24,208 -28,102 -66,168 -40,70 -104,130 -66,66 -122,100 -58,44 -138,86 10,-60 12,-128 -2,-14 -2,-38 -8,-74 -30,-140 -26,-54 -66,-108 -42,-42 -94,-72 -56,-18 -116,-30 -18,2 -30,-2 -50,2 -100,14 60,108 98,194 32,94 42,158 0,30 2,50 -4,42 -6,74 -14,62 -32,106 -26,52 -48,94 -30,48 -50,94 -26,50 -36,98 -11,30 -11,62 0,9 1,18 -4,20 2,38 2,68 32,140 Q 714,1756 590,1558 460,1370 384,1134 304,913 304,721 l 0,-9 z m 166,-300 10,6 q 2,14 -2,38 4,90 32,206 42,132 126,278 -14,-78 -16,-146 0,-50 6,-92 20,-112 68,-190 50,-82 118,-126 70,-46 142,-46 l 4,-2 q 76,2 144,34 66,38 118,102 48,68 86,150 34,86 60,188 82,-62 132,-158 44,-88 54,-186 -2,-10 0,-26 -4,-78 -30,-164 -40,-90 -106,-168 -74,-70 -184,-122 -118,-42 -256,-50 l -14,4 -19,0 q -79,0 -155,30 -84,30 -158,92 -66,58 -112,150 -36,90 -48,198 z"
       id="path5097"
       inkscape:connector-curvature="0" />
  </g>
  <g
     id="g5099"
     transform="matrix(1,0,0,-1,8644.068,8277.1527)">
    <path
       unicode="k"
       d="m 122,534 22,16 q 0,290 190,506 210,234 530,236 136,-2 250,-42 -44,-94 -54,-174 -92,36 -198,38 Q 642,1112 480,948 322,778 320,544 322,392 392,260 468,128 588,58 670,10 764,-6 q 86,30 154,96 70,60 116,140 46,72 84,172 34,90 56,186 18,84 32,188 12,94 16,174 4,70 4,148 0,68 -2,106 0,26 -2,50 -104,298 -284,602 10,-12 26,-20 16,-18 60,-66 42,-54 78,-114 34,-66 70,-170 32,-112 46,-232 l -2,-6 6,-10 q 60,-172 76,-326 2,-62 4,-112 -2,-94 -16,-166 Q 1260,510 1212,406 1158,292 1106,224 1048,150 990,94 928,30 898,12 866,-16 854,-20 l -2,-4 q 148,4 266,70 126,74 196,202 74,136 74,284 0,124 -44,228 84,18 168,68 54,-132 54,-294 Q 1566,242 1364,20 1162,-198 844,-200 528,-200 324,20 122,240 122,534 Z m 1097,712 q 0,13 3,26 l 10,12 0,6 q 0,38 18,88 18,54 64,100 4,6 20,18 12,10 70,40 52,24 126,44 2,-2 18,4 4,0 44,18 24,12 60,36 22,18 64,64 28,36 58,92 0,-14 18,-30 4,-22 36,-80 16,-64 38,-124 0,-56 10,-126 -10,-20 -2,-34 -12,-100 -34,-188 -12,-10 -6,-16 -14,-14 -20,-40 -26,-32 -34,-54 -26,-30 -46,-56 -40,-34 -62,-50 -58,-32 -100,-36 -13,-4 -20,-4 -4,0 -6,2 -8,-1 -16,-1 -43,0 -78,19 -78,20 -132,86 6,4 44,26 16,10 98,66 60,42 126,96 44,40 102,112 36,56 52,116 -14,-12 -8,-18 -16,-16 -24,-40 -32,-38 -44,-62 -36,-34 -66,-68 -52,-44 -86,-70 -56,-38 -108,-62 -76,-34 -136,-44 -16,0 -12,20 -20,6 -20,56 -19,25 -19,56 z"
       id="path5101"
       inkscape:connector-curvature="0" />
  </g>
  <g
     id="g5103"
     transform="matrix(1,0,0,-1,-3389.8306,4145.7967)">
    <path
       unicode="l"
       d="m 152,442 6,6 q -6,10 -6,20 0,12 4,24 l 314,554 -2,0 -196,346 q -16,26 -4,44 12,18 38,18 l 296,0 q 48,0 80,-56 200,-352 202,-354 L 564,480 q -30,-58 -82,-58 l -292,0 q -28,0 -38,20 z m 648,190 6,4 658,1162 q 14,30 30,40 16,16 40,16 l 6,0 300,0 q 24,0 38,-20 4,-8 6,-20 -2,-12 -6,-24 l -656,-1156 0,-2 416,-762 q 12,-24 0,-46 -14,-18 -38,-18 l -298,0 q -48,0 -82,56 -416,768 -420,770 z"
       id="path5105"
       inkscape:connector-curvature="0" />
  </g>
  <g
     id="g5107"
     transform="matrix(1,0,0,-1,-2944.9153,713.5932)">
    <path
       unicode="m"
       d="m -2,212 2,0 0,144 q 0,118 84,202 84,84 202,84 118,0 202,-84 82,-82 82,-202 l 0,-144 -572,0 z m 18,748 4,4 q 0,110 76,186 76,76 181,76 l 5.5,0 5.5,0 q 108,0 180,-76 76,-72 76,-177 l 0,-11 0,-10 Q 544,851 468,776 394,700 280,698 174,700 94,774 20,854 16,960 Z m 608,-754 8,6 -4,156 q 4,136 92,224 92,92 210,92 l 14,0 16,0 q 127,0 208,-92 93,-81 93,-206 0,-10 -1,-20 l 8,-154 z m 31,822 q 0,10 1,20 -1,9 -1,18 0,105 87,190 78,80 208,86 114,-6 208,-86 78,-92 86,-208 -8,-128 -86,-208 -88,-86 -194,-86 l -14,0 -16,0 q -119,0 -192,86 -87,74 -87,188 z m 669,-822 8,186 q -1,9 -1,19 0,131 105,233 96,98 252,104 138,-6 252,-106 94,-110 104,-252 l -10,-186 -704,6 z m 18,924 6,0 q 10,142 94,232 100,96 216,96 l 14,0 16,0 q 135,0 214,-96 97,-82 97,-208 0,-12 -1,-24 1,-9 1,-18 0,-119 -97,-214 -88,-90 -232,-96 -128,6 -232,96 -88,102 -96,232 z"
       id="path5109"
       inkscape:connector-curvature="0" />
  </g>
  <g
     id="g5111"
     transform="matrix(1,0,0,-1,105.93221,-1616.9153)">
    <path
       unicode="n"
       d="m -2,514 2,0 0,246 40,0 0,-246 -42,0 z m 100,-84 2,2 0,388 40,0 0,-390 -42,0 z m 80,-20 2,0 0,450 40,0 0,-450 -42,0 z m 80,-20 2,0 0,450 40,0 0,-450 -42,0 z m 100,-2 2,2 0,592 38,0 0,-594 -40,0 z m 78,-2 2,2 0,674 40,0 0,-676 -42,0 z m 102,0 0,716 40,0 0,-716 -40,0 z m 80,0 0,736 40,0 0,-736 -40,0 z m 100,0 0,716 40,0 0,-716 -40,0 z m 80,-2 0,2 0,694 40,0 0,-696 -40,0 z m 80,-2 0,2 0,776 40,0 0,-778 -40,0 z m 100,-2 0,2 0,838 40,0 0,-840 -40,0 z m 52,26 8,8 0,800 q 0,20 24,28 78,30 160,30 176,0 300,-118 130,-118 142,-288 48,18 96,18 106,0 178,-74 74,-72 74,-173 l 0,-5.5 0,-4.5 q 0,-101 -74,-175 -72,-74 -178,-74 l -350,0 -352,0 q -8,2 -20,8 -6,10 -8,20 z"
       id="path5113"
       inkscape:connector-curvature="0" />
  </g>
  <g
     id="g5115"
     transform="matrix(1,0,0,-1,8855.9324,-2019.4577)">
    <path
       unicode="o"
       d="m 0,1296 q 0,32 16,62 26,50 80,64 192,60 434,78 130,12 260,12 118,-2 236,-10 256,-18 508,-88 254,-70 446,-184 48,-30 62,-84 4,-16 4,-34 0,-34 -18,-66 -30,-48 -84,-62 -18,-6 -34,-6 -34,0 -66,18 -222,132 -538,192 -258,52 -506,52 l -18,0 q -15,1 -29,1 l -59,-3 q -296,-8 -522,-78 -20,-4 -40,-6 -32,2 -62,16 -48,28 -66,78 l 2,10 q -6,20 -6,38 z m 92,-514 8,12 q -4,10 -4,30 0,22 12,52 22,36 64,54 272,78 568,82 132,-4 266,-16 448,-56 778,-258 44,-28 50,-68 4,-14 4,-22 l 0,-6 q 0,-34 -18,-58 -24,-44 -70,-50 -14,-6 -26,-4 -30,-4 -58,16 -290,176 -690,224 -124,12 -242,14 -264,-2 -502,-72 -16,-6 -32,-6 -26,0 -52,12 -42,22 -56,64 z m 50,-424 6,4 q 0,8 -2,20 0,22 12,48 20,28 54,40 290,62 546,66 480,-4 850,-226 32,-24 40,-56 2,-14 2,-22 0,-28 -14,-46 -20,-36 -56,-40 -8,-4 -16,-4 l -6,0 -6,0 q -21,0 -40,12 -328,198 -758,200 -236,-2 -504,-60 -10,-4 -22,-4 -24,-2 -46,12 -32,20 -40,56 z"
       id="path5117"
       inkscape:connector-curvature="0" />
  </g>
  <g
     id="g5119"
     transform="matrix(1,0,0,-1,5805.0849,-1998.2712)">
    <path
       unicode="p"
       d="m -8,834 8,4 Q 0,630 80,438 162,252 296,112 436,-22 622,-106 q 192,-78 398,-80 210,0 398,80 190,80 326,218 138,134 216,326 80,178 80,379 l 0,19 0,19 q 0,196 -80,379 -78,186 -218,326 -134,132 -328,218 -184,74 -398,80 -204,-6 -398,-82 Q 432,1690 292,1558 158,1416 74,1232 -4,1036 -8,834 Z m 226,-18 12,10 -4,12 q 4,92 24,196 12,24 16,60 66,164 188,302 136,122 300,192 136,36 266,46 206,-10 378,-96 184,-106 288,-262 56,-90 86,-178 16,-46 18,-62 24,-91 24,-179 l 0,-25 q 1,-15 1,-27 0,-24 -5,-39 0,-40 -12,-60 -6,-40 -26,-50 -12,-32 -38,-34 -10,-16 -30,-16 -7,0 -16,2 0,-4 -1.5,-4 -1.5,0 -4.5,4 -6,-1 -13,-1 -24,0 -59,17 -94,34 -188,162 -100,140 -172,222 -88,102 -184,188 -112,98 -218,150 -72,34 -166,60 -20,6 -28,0 l 0,-18 q 4,-8 2,-18 4,-14 2,-18 12,-102 12,-186 0,-142 -32,-240 Q 602,810 514,732 424,648 344,648 l -4,0 -8,-2 -36,6 q -48,18 -64,58 -14,46 -14,106 z"
       id="path5121"
       inkscape:connector-curvature="0" />
  </g>
  <g
     id="g5123"
     transform="matrix(1,0,0,-1,2902.5424,-2040.6441)">
    <path
       unicode="q"
       d="m -22,788 22,30 q 0,280 136,434 136,154 392,154 234,0 364,-94 128,-94 204,-322 l 74,-236 q 24,-68 50,-118 32,-52 74,-94 48,-40 112,-62 68,-22 152,-22 124,0 182,28 62,30 62,92 0,56 -38,90 -36,38 -122,56 l -160,38 q -142,34 -208,108 -64,76 -64,196 0,76 24,132 22,60 62,96 36,38 94,62 50,24 112,34 54,10 124,10 372,0 402,-298 l -238,-28 q -4,74 -52,108 -42,32 -130,32 -76,0 -124,-34 -42,-34 -44,-94 2,-54 30,-86 30,-32 104,-50 l 150,-32 q 156,-36 232,-116 76,-78 76,-213 l 0,-10 q 0,-321 -488,-321 -116,0 -212,22 -94,20 -160,56 -64,34 -116,90 -46,52 -80,112 -28,52 -54,130 l -72,230 q -22,62 -36,98 -20,44 -44,82 -30,46 -60,66 -34,30 -80,40 -39,17 -84,17 -12,0 -24,-1 -12,2 -23,2 -35,0 -63,-14 -42,-6 -78,-42 -40,-24 -66,-74 -28,-38 -44,-112 -16,-54 -16,-132 l 0,-18 0,-8 q 0,-157 76,-260 76,-92 198,-98 52,4 100,12 52,18 86,32 34,24 62,38 26,24 40,32 l 12,18 76,-208 q -6,-2 -16,-14 -10,-4 -46,-30 Q 784,306 742,286 700,274 632,256 564,246 490,242 242,246 110,382 -22,528 -22,788 Z"
       id="path5125"
       inkscape:connector-curvature="0" />
  </g>
  <g
     id="g5127"
     transform="matrix(1,0,0,-1,10360.17,205.1186)">
    <path
       unicode="r"
       d="m 168,400 8,6 q 0,272 28,400 16,66 64,112 50,44 116,54 210,22 634,24 424,-2 634,-24 66,-10 116,-54 50,-46 66,-112 14,-60 20,-136 6,-64 6,-105 l 0,-19 q 2,-48 2,-140 0,-274 -30,-400 -16,-70 -66,-114 -50,-46 -118,-52 -218,-26 -634,-26 -414,0 -634,22 -66,8 -116,52 -50,46 -66,112 -30,132 -30,400 z m 128,288 2,2 122,0 0,-654 102,0 0,654 122,0 0,102 -348,0 0,-104 z m 138,1162 4,4 q 14,-34 74,-214 20,-56 40,-138 22,-78 28,-102 l 2,-322 100,-2 2,324 148,452 -112,0 -84,-302 -76,300 -126,0 z m 222,-1712 8,6 q -1,-15 -1,-28 0,-38 9,-56 10,-42 62,-42 46,0 112,68 l -6,-58 108,-2 -4,574 -100,0 -4,-444 q -26,-48 -60,-48 -16,0 -22,24 l 2,6 -2,0 2,14 q -2,12 0,20 l -2,424 -100,2 z m 182,1098 0,22 4,6 -2,198 q 2,100 26,134 45,58 110,58 l 4,0 5,0 q 74,0 109,-58 29,-29 29,-105 0,-14 -1,-29 l 4,-198 q -4,-98 -30,-134 -46,-60 -118,-60 -74,0 -114,56 -26,30 -26,110 z m 76,0 2,4 q 4,-80 50,-80 51,0 51,64 0,7 -1,14 l 6,240 q -6,78 -50,78 -53,0 -53,-66 0,-7 1,-14 z M 1036,4 l 6,10 76,0 4,52 q 56,-62 112,-62 58,0 82,62 6,32 8,112 l -2,228 0,25 q 0,59 -8,87 -20,58 -86,62 -48,-4 -110,-62 l 0,244 -82,4 0,-762 z m 78,108 2,4 0,340 q 28,28 52,26 48,0 48,-78 l 0,-240 q 0,-78 -48,-78 -24,0 -54,26 z m 72,1062 8,6 q 0,-44 12,-84 14,-42 70,-42 58,0 116,68 l 2,-74 100,-2 2,574 -104,0 0,-426 q -30,-48 -66,-48 -16,0 -20,22 l 0,4 q 2,8 2,14 2,12 0,18 l 2,412 -124,-2 0,-440 z m 198,-1006 4,8 q 0,-84 34,-132 46,-56 122,-58 86,0 124,60 20,26 22,60 l 2,72 -102,0 q 1,-17 1,-30 0,-26 -3,-34 -6,-40 -48,-40 -52,0 -54,80 l 2,106 202,-2 2,114 q -2,90 -28,132 -46,54 -120,56 -82,-2 -124,-58 -36,-48 -36,-134 l 0,-200 z m 102,166 0,2 102,0 0,50 q 0,78 -50,78 -52,0 -52,-80 l 0,-50 z"
       id="path5129"
       inkscape:connector-curvature="0" />
  </g>
  <g
     id="g5131"
     transform="matrix(1,0,0,-1,7902.5425,247.4915)">
    <path
       unicode="s"
       d="m 0,1248 298,266 q 202,174 302,182 14,2 28,0 l 5,0 q 96,0 159,-72 74,-80 100,-256 62,-380 80,-468 72,-312 150,-314 68,2 192,202 132,206 138,308 4,22 2,34 2,140 -129,140 l -11,0 q -9,1 -18,1 -61,0 -132,-35 147,482 545,482 l 7,0 24,2 q 296,-12 298,-368 -2,-22 -2,-42 Q 2022,1010 1618,490 1200,-54 912,-54 732,-54 608,276 L 442,882 q -92,330 -196,330 -22,0 -162,-98 z"
       id="path5133"
       inkscape:connector-curvature="0" />
  </g>
  <g
     id="g5135"
     transform="matrix(1,0,0,-1,5190.6781,7768.6781)">
    <path
       unicode="t"
       d="m 284,102 10,14 88,-86 0,4 176,844 -176,-850 222,22 126,684 36,26 4,-2 -2,4 4,22 0,16 26,198 -26,-198 -4,-46 -4,4 -38,-28 -126,-682 -8,-50 108,-42 24,0 2,8 2,-26 172,-66 4,-10 354,68 4,10 0,10 60,-16 -6,10 0,-8 182,40 0,32 -6,4 66,-20 70,20 6,10 -10,4 118,12 -162,748 -54,12 -80,-18 -10,104 -138,60 -34,412 56,78 -264,164 -24,314 2,-12 -32,-264 28,-24 -30,24 -10,-2 -8,10 -200,-284 42,-30 -18,-228 -50,16 -20,-54 -42,-208 -134,22 -64,-40 -16,-116 -40,-14 z m 512,764 14,14 124,106 12,-30 z m 14,128 14,6 112,110 14,-10 -14,-12 -110,-110 z m 10,92 14,2 -10,24 128,102 -12,-14 z m 8,-420 14,22 -10,8 6,-40 z m 8,544 118,104 -10,-18 -102,-120 z m 10,96 8,-8 -4,30 106,86 -8,-12 -94,-106 z m 86,-662 16,172 -10,-182 z m 10,208 6,2 0,6 0,-8 6,2 6,-8 -2,6 -4,-4 -2,6 -2,-4 -6,6 0,-6 0,6 z m 4,6 0,2 4,-8 z m 106,66 0,92 58,-18 2,-102 z m 2,-108 0,70 60,-18 0,-118 -12,12 0,30 z m 0,242 0,92 54,-22 4,-98 z m 0,122 0,70 50,-20 4,-82 z m 0,202 0,72 44,-22 2,-78 z m 2,-96 2,66 46,-22 2,-72 z m 76,40 2,82 40,-28 6,-70 z m 2,-98 4,76 40,-30 8,-62 z m 2,-104 4,82 40,-32 12,-64 z m 2,-120 6,102 40,-32 14,-82 z m 4,-130 0,106 48,-32 8,-82 z m 2,-136 2,118 44,-24 10,-76 -20,-16 4,-6 z"
       id="path5137"
       inkscape:connector-curvature="0" />
  </g>
  <g
     id="g5139"
     transform="matrix(1,0,0,-1,9766.9494,5840.712)">
    <path
       unicode="u"
       d="m 104,1600 20,12 Q 156,1360 210,1134 262,912 322,748 380,588 452,448 520,310 584,220 642,132 710,60 770,-8 814,-44 q 36,-32 74,-54 46,-28 102,-30 42,0 96,26 26,18 84,64 44,42 118,114 58,70 132,152 58,84 134,188 58,106 116,208 116,0 246,28 l -10,244 q -82,-18 -152,-18 -190,0 -330,132 -118,134 -128,360 8,114 38,172 45,60 100,60 l 4,0 5,0 q 64,0 93,-54 37,-47 37,-136 0,-13 -1,-26 1,-11 1,-23 0,-87 -39,-205 6,0 2,-4 8,-2 10,-12 12,-8 16,-18 12,-6 24,-20 16,-10 30,-20 20,-6 38,-16 28,-6 48,-12 30,-2 58,-2 36,2 66,6 70,150 70,324 l 0,28 0,22 q 0,224 -116,344 -110,130 -329,130 l -7,0 -8,0 q -137,0 -250,-70 -102,-68 -164,-192 -50,-118 -56,-274 4,-226 100,-412 104,-180 274,-270 -142,-290 -354,-500 -74,96 -138,184 -58,92 -126,218 -62,128 -114,268 -44,140 -90,330 -38,190 -68,410 l -346,0 z"
       id="path5141"
       inkscape:connector-curvature="0" />
  </g>
  <g
     id="g5143"
     transform="matrix(1,0,0,-1,10105.932,2514.4407)">
    <path
       unicode="v"
       d="M 0,896 Q 0,704 136,568 272,432 464,432 q 192,0 328,136 136,136 136,328 0,192 -136,328 -136,136 -328,136 -192,0 -328,-136 Q 0,1088 0,896 Z m 1120,0 q 0,-192 136,-328 136,-136 328,-136 192,0 328,136 136,136 136,328 0,192 -136,328 -136,136 -328,136 -192,0 -328,-136 -136,-136 -136,-328 z"
       id="path5145"
       inkscape:connector-curvature="0" />
  </g>
  <g
     id="g5147"
     transform="matrix(1,0,0,-1,5317.7967,-91.4915)">
    <path
       unicode="w"
       d="M -20,682 0,710 Q 2,622 46,552 90,480 178,444 252,412 348,412 l 18,0 q 172,4 274,140 14,28 40,60 -4,0 2,0 -4,-2 2,-8 -2,-4 2,-6 70,-146 216,-174 38,-10 84,-10 104,0 202,66 22,22 94,82 l 14,22 4,-4 18,28 q 28,20 20,22 l 24,-26 q 92,-90 114,-108 100,-82 216,-82 l 6,0 q 18,-2 22,0 192,8 264,164 47,79 47,164 0,10 -1,20 1,10 1,20 0,71 -37,150 -26,66 -92,114 -54,40 -124,56 -32,2 -78,6 -22,-4 -56,-4 -96,-18 -184,-92 -4,-14 -114,-120 l -6,-14 q -14,12 -48,50 l -62,62 q -98,94 -220,106 -32,8 -50,2 -11,1 -22,1 -70,0 -122,-35 -94,-38 -136,-140 l -20,-22 q -66,128 -202,158 l -12,0 q -24,0 -54,6 -100,-8 -182,-70 4,-2 -2,10 10,12 16,86 18,56 18,100 8,8 20,16 l 380,-8 -4,166 -528,-8 -98,-518 q 67,-5 102,-5 26,0 34,3 10,-2 18,-2 27,0 36,24 8,0 28,24 46,24 94,30 20,-6 32,-4 74,-18 108,-68 30,-47 30,-95 l 0,-11 q 4,-16 0,-18 -2,-76 -48,-118 -40,-53 -103,-53 -7,0 -13,1 -20,-6 -52,6 -74,14 -102,114 l -4,20 z m 822,52 q 8,2 0,14 l 10,4 q 4,14 4,38 18,46 48,80 44,24 84,32 38,-6 56,-8 58,-20 98,-56 l 106,-98 0,-18 q -16,0 -30,-28 -34,-20 -34,-34 -20,-4 -30,-24 -30,-12 -38,-26 -66,-28 -114,-32 l -14,4 -9,0 q -53,0 -101,46 -28,38 -36,106 z m 630,-6 4,4 96,102 q 70,52 132,62 10,-4 8,0 14,-2 8,0 68,-2 100,-36 48,-38 48,-98 5,-10 5,-19 0,-7 -3,-13 2,-9 2,-17 0,-13 -6,-23 -4,-56 -48,-84 -30,-30 -90,-30 l 2,-2 q -86,0 -144,52 -8,0 -114,102 z"
       id="path5149"
       inkscape:connector-curvature="0" />
  </g>
  <g
     id="g5151"
     transform="matrix(1,0,0,-1,1546.6102,7514.4408)">
    <path
       unicode="x"
       d="m -8,106 8,6 0,-40 q 12,-84 76,-144 68,-56 152,-58 l 1582,2 q 8,-2 28,2 84,8 146,76 54,62 58,152 l -4,1578 4,12 q -4,6 -2,8 -12,88 -78,152 -70,56 -160,60 l -1574,-4 q -20,4 -42,-4 -84,-12 -140,-82 -52,-60 -54,-154 L -6,888 Q -7,821 -7,723 -7,625 -6,496 -8,232 -8,106 Z m 216,70 8,2 0,874 186,-4 q -20,-78 -20,-162 0,-150 72,-294 84,-156 240,-252 146,-80 314,-84 10,4 20,0 180,10 330,104 164,114 238,300 38,110 40,220 -2,84 -20,164 l 168,4 2,-20 q -1,-46 -1,-109 0,-125 3,-317 0,-282 2,-428 -2,-32 -22,-58 -24,-20 -58,-24 L 292,96 q -5,-1 -9,-1 -29,0 -51,23 -22,20 -24,58 z m 402,687 0,15 2,2 0,5 q 0,160 116,273 112,116 278,116 158,0 278,-114 108,-116 114,-280 Q 1392,716 1282,602 1162,486 1004,486 834,486 726,600 610,711 610,863 Z m 780,485 2,4 6,234 q -6,34 22,56 18,22 56,22 l 58,0 58,0 58,0 56,0 q 34,0 56,-24 22,-22 22,-56 l 0,-234 q 0,-34 -24,-58 -22,-22 -56,-22 l -234,0 q -34,0 -58,22 -22,22 -22,56 z"
       id="path5153"
       inkscape:connector-curvature="0" />
  </g>
  <g
     id="g5155"
     transform="matrix(1,0,0,-1,6779.6612,2472.0678)">
    <path
       unicode="y"
       d="m -4,892 4,4 Q 0,688 80,498 162,310 298,172 436,34 624,-46 q 190,-82 398,-82 208,0 398,80 188,82 326,218 136,138 218,326 80,190 80,398 0,208 -80,398 -82,188 -220,326 -136,136 -326,218 -190,80 -398,80 -208,0 -398,-80 Q 434,1754 296,1616 158,1480 78,1290 -4,1100 -4,892 Z m 100,-2 2,2 q 0,194 78,374 L 616,62 Q 380,174 240,398 96,618 96,890 Z m 132,494 18,8 q 126,194 328,302 199,112 432,112 l 8,0 q 174,0 336,-64 156,-64 286,-178 l -6,0 q -8,0 -6,0 -70,0 -110,-48 -46,-48 -46,-111 l 0,-5 q -2,-12 0,-24 0,-12 4,-26 2,-12 6,-22 0,-8 10,-24 6,-16 10,-22 0,-6 14,-26 6,-18 14,-22 -4,-4 14,-26 8,-20 14,-24 72,-132 76,-254 -4,-12 -2,-24 -4,-14 -4,-24 -2,-10 -4,-28 -4,-16 -4,-26 -4,-8 -8,-28 -8,-20 -8,-30 -4,-8 -10,-32 -8,-24 -10,-32 -4,-8 -12,-36 -10,-28 -10,-36 l -94,-308 -330,990 102,8 q 26,2 32,22 10,18 -2,38 -10,14 -36,16 -128,-12 -219,-12 l -25,0 q -13,-1 -28,-1 -31,0 -74,3 -58,0 -100,4 l -38,2 q -26,0 -36,-16 -12,-20 -4,-38 6,-22 30,-22 44,-6 94,-8 L 972,918 772,314 l -338,996 106,10 q 22,0 30,22 6,16 -4,38 -12,12 -34,16 -122,-13 -206,-13 -21,0 -40,1 -38,-4 -58,0 z m 504,-1394 2,2 278,806 280,-780 q 4,0 2,-6 6,-2 4,-6 -148,-50 -306,-52 -126,0 -260,36 z m 722,82 2,6 280,810 q 70,176 70,328 0,56 -6,94 112,-200 112,-442 0,-244 -126,-462 Q 1662,200 1454,72 Z"
       id="path5157"
       inkscape:connector-curvature="0" />
  </g>
  <g
     id="g5159"
     transform="matrix(1,0,0,-1,6313.5595,5861.8984)">
    <path
       unicode="z"
       d="m 380,1074 12,6 226,0 0,-720 q 0,-142 28,-214 30,-72 104,-138 76,-66 182,-102 110,-36 246,-36 128,0 228,24 108,26 236,86 l 4,324 q -160,-102 -310,-102 -92,0 -156,40 -54,30 -70,80 -20,46 -20,199 l 0,29 -2,524 486,0 0,320 -486,0 0,518 -292,0 Q 776,1754 724,1652 672,1548 586,1476 502,1404 380,1364 l 0,-290 z"
       id="path5161"
       inkscape:connector-curvature="0" />
  </g>
</svg>
